<svg width="20" height="20" viewBox="0 0 20 20" fill="none" xmlns="http://www.w3.org/2000/svg">
<path d="M18.125 0H15V1.25H18.125C18.4702 1.25 18.75 1.5298 18.75 1.875V18.125C18.75 18.4702 18.4702 18.75 18.125 18.75H1.875C1.5298 18.75 1.25 18.4702 1.25 18.125V1.875C1.25 1.5298 1.5298 1.25 1.875 1.25H8.75V0H1.875C0.839453 0 0 0.839453 0 1.875V18.125C0 19.1605 0.839453 20 1.875 20H18.125C19.1605 20 20 19.1605 20 18.125V1.875C20 0.839453 19.1605 0 18.125 0Z" fill="#E6762A"/>
<path d="M17.5 15.625V8.125H16.25V9.375H8.125C8.125 7.9943 7.0057 6.875 5.625 6.875H3.75V4.375H2.5V15.625H3.75V13.125H16.25V15.625H17.5ZM3.75 8.125H5.625C6.31535 8.125 6.875 8.68465 6.875 9.375H3.75V8.125ZM3.75 11.875V10.625H16.25V11.875H3.75Z" fill="#E6762A"/>
<path d="M11.25 0H10V1.25H11.25V0Z" fill="#E6762A"/>
<path d="M13.75 0H12.5V1.25H13.75V0Z" fill="#E6762A"/>
</svg>
