<svg width="38" height="37" viewBox="0 0 38 37" fill="none" xmlns="http://www.w3.org/2000/svg">
<path d="M37.1719 31.6875H32.2969V30.4688H35.9531C36.1147 30.4688 36.2697 30.4045 36.384 30.2903C36.4983 30.176 36.5625 30.021 36.5625 29.8594V27.4219C36.5628 22.8405 34.7836 18.4382 31.6004 15.1434C28.4171 11.8486 24.0786 9.91891 19.5 9.76143V9.14062H21.9375C22.0991 9.14062 22.2541 9.07642 22.3684 8.96214C22.4827 8.84786 22.5469 8.69287 22.5469 8.53125V6.09375C22.5469 5.93213 22.4827 5.77714 22.3684 5.66286C22.2541 5.54858 22.0991 5.48438 21.9375 5.48438H15.8438C15.6821 5.48438 15.5271 5.54858 15.4129 5.66286C15.2986 5.77714 15.2344 5.93213 15.2344 6.09375V8.53125C15.2344 8.69287 15.2986 8.84786 15.4129 8.96214C15.5271 9.07642 15.6821 9.14062 15.8438 9.14062H18.2812V9.76143C13.7026 9.91891 9.36411 11.8486 6.18086 15.1434C2.99762 18.4382 1.21849 22.8405 1.21875 27.4219V29.8594C1.21875 30.021 1.28295 30.176 1.39723 30.2903C1.51151 30.4045 1.66651 30.4688 1.82812 30.4688H5.48438V31.6875H0.609375C0.447759 31.6875 0.292762 31.7517 0.178482 31.866C0.0642018 31.9803 0 32.1353 0 32.2969V35.9531C0 36.1147 0.0642018 36.2697 0.178482 36.384C0.292762 36.4983 0.447759 36.5625 0.609375 36.5625H37.1719C37.3335 36.5625 37.4885 36.4983 37.6028 36.384C37.717 36.2697 37.7812 36.1147 37.7812 35.9531V32.2969C37.7812 32.1353 37.717 31.9803 37.6028 31.866C37.4885 31.7517 37.3335 31.6875 37.1719 31.6875ZM16.4531 7.92188V6.70312H21.3281V7.92188H16.4531ZM2.4375 29.25V27.4219C2.43761 24.1678 3.40263 20.9867 5.21056 18.2811C7.01848 15.5754 9.58811 13.4666 12.5945 12.2213C15.6009 10.9759 18.9091 10.6501 22.1007 11.2848C25.2923 11.9196 28.224 13.4865 30.5251 15.7874C32.0576 17.3118 33.2725 19.125 34.0996 21.122C34.9268 23.1191 35.3496 25.2603 35.3438 27.4219V29.25H2.4375ZM31.0781 30.4688V31.6875H6.70312V30.4688H31.0781ZM36.5625 35.3438H1.21875V32.9062H36.5625V35.3438Z" fill="#FCFCFC"/>
<path d="M6.70312 33.5156H2.4375C2.27588 33.5156 2.12089 33.5798 2.00661 33.6941C1.89233 33.8084 1.82813 33.9634 1.82812 34.125C1.82813 34.2866 1.89233 34.4416 2.00661 34.5559C2.12089 34.6702 2.27588 34.7344 2.4375 34.7344H6.70312C6.86474 34.7344 7.01974 34.6702 7.13402 34.5559C7.2483 34.4416 7.3125 34.2866 7.3125 34.125C7.3125 33.9634 7.2483 33.8084 7.13402 33.6941C7.01974 33.5798 6.86474 33.5156 6.70312 33.5156Z" fill="#FCFCFC"/>
<path d="M9.14062 33.5156H8.53125C8.36963 33.5156 8.21464 33.5798 8.10036 33.6941C7.98608 33.8084 7.92188 33.9634 7.92188 34.125C7.92188 34.2866 7.98608 34.4416 8.10036 34.5559C8.21464 34.6702 8.36963 34.7344 8.53125 34.7344H9.14062C9.30224 34.7344 9.45724 34.6702 9.57152 34.5559C9.6858 34.4416 9.75 34.2866 9.75 34.125C9.75 33.9634 9.6858 33.8084 9.57152 33.6941C9.45724 33.5798 9.30224 33.5156 9.14062 33.5156Z" fill="#FCFCFC"/>
<path d="M18.8906 4.26562C19.0522 4.26562 19.2072 4.20142 19.3215 4.08714C19.4358 3.97286 19.5 3.81787 19.5 3.65625V0.609375C19.5 0.447759 19.4358 0.292762 19.3215 0.178482C19.2072 0.0642018 19.0522 0 18.8906 0C18.729 0 18.574 0.0642018 18.4597 0.178482C18.3455 0.292762 18.2812 0.447759 18.2812 0.609375V3.65625C18.2812 3.81787 18.3455 3.97286 18.4597 4.08714C18.574 4.20142 18.729 4.26562 18.8906 4.26562Z" fill="#FCFCFC"/>
<path d="M10.3594 7.92188H13.4062C13.5679 7.92188 13.7229 7.85767 13.8371 7.74339C13.9514 7.62911 14.0156 7.47412 14.0156 7.3125C14.0156 7.15088 13.9514 6.99589 13.8371 6.88161C13.7229 6.76733 13.5679 6.70312 13.4062 6.70312H10.3594C10.1978 6.70312 10.0428 6.76733 9.92848 6.88161C9.8142 6.99589 9.75 7.15088 9.75 7.3125C9.75 7.47412 9.8142 7.62911 9.92848 7.74339C10.0428 7.85767 10.1978 7.92188 10.3594 7.92188Z" fill="#FCFCFC"/>
<path d="M23.7656 7.3125C23.7656 7.47412 23.8298 7.62911 23.9441 7.74339C24.0584 7.85767 24.2134 7.92188 24.375 7.92188H27.4219C27.5835 7.92188 27.7385 7.85767 27.8528 7.74339C27.967 7.62911 28.0312 7.47412 28.0312 7.3125C28.0312 7.15088 27.967 6.99589 27.8528 6.88161C27.7385 6.76733 27.5835 6.70312 27.4219 6.70312H24.375C24.2134 6.70312 24.0584 6.76733 23.9441 6.88161C23.8298 6.99589 23.7656 7.15088 23.7656 7.3125Z" fill="#FCFCFC"/>
<path d="M13.6052 4.64066C13.722 4.7524 13.8784 4.81319 14.0399 4.80965C14.2015 4.80611 14.3551 4.73852 14.4668 4.62177C14.5786 4.50501 14.6394 4.34864 14.6358 4.18706C14.6323 4.02549 14.5647 3.87193 14.4479 3.76019L12.6743 2.06269C12.5575 1.95095 12.4012 1.89016 12.2396 1.8937C12.078 1.89724 11.9244 1.96483 11.8127 2.08159C11.7009 2.19834 11.6402 2.35471 11.6437 2.51629C11.6472 2.67787 11.7148 2.83142 11.8316 2.94317L13.6052 4.64066Z" fill="#FCFCFC"/>
<path d="M23.2218 4.80983C23.3788 4.81 23.5298 4.74937 23.6431 4.64066L25.4167 2.94317C25.4745 2.88783 25.5209 2.82166 25.5531 2.74841C25.5854 2.67517 25.6029 2.59629 25.6046 2.51629C25.6064 2.43628 25.5923 2.35672 25.5633 2.28213C25.5344 2.20754 25.4909 2.1394 25.4356 2.08159C25.3803 2.02377 25.3141 1.97743 25.2409 1.94519C25.1676 1.91295 25.0887 1.89546 25.0087 1.8937C24.9287 1.89195 24.8492 1.90597 24.7746 1.93496C24.7 1.96396 24.6318 2.00736 24.574 2.06269L22.8004 3.76019C22.7125 3.84431 22.6518 3.95282 22.6261 4.07174C22.6004 4.19067 22.6108 4.31457 22.6562 4.42748C22.7015 4.5404 22.7796 4.63715 22.8804 4.7053C22.9812 4.77344 23.1001 4.80985 23.2218 4.80983Z" fill="#FCFCFC"/>
</svg>
