<svg width="24" height="23" viewBox="0 0 24 23" fill="none" xmlns="http://www.w3.org/2000/svg">
<g clip-path="url(#clip0_906_33)">
<path d="M21.6206 17.25H20.9019V15.8125H22.4292V14.4648C22.4301 13.3343 22.2423 12.2115 21.8736 11.1428L20.5145 11.6128C20.8217 12.5017 20.9827 13.4346 20.991 14.375H3.56273C3.61664 9.59931 7.50085 5.75481 12.2769 5.75C13.6662 5.74573 15.036 6.07739 16.2695 6.71672L16.9293 5.43878C16.1394 5.03669 15.3002 4.73993 14.4331 4.55616V2.875H15.8706V1.4375H8.68311V2.875H10.1206V4.54825C5.45727 5.56739 2.13089 9.6936 2.12451 14.467V15.8125H3.65186V17.25H2.93311C1.74223 17.25 0.776855 18.2154 0.776855 19.4062C0.776855 20.5971 1.74223 21.5625 2.93311 21.5625H21.6206C22.8115 21.5625 23.7769 20.5971 23.7769 19.4062C23.7769 18.2154 22.8115 17.25 21.6206 17.25ZM11.5581 2.875H12.9956V4.3125H11.5581V2.875ZM5.08936 15.8125H19.4644V17.25H5.08936V15.8125ZM21.6206 20.125H2.93311C2.53613 20.125 2.21436 19.8032 2.21436 19.4062C2.21436 19.0093 2.53613 18.6875 2.93311 18.6875H21.6206C22.0176 18.6875 22.3394 19.0093 22.3394 19.4062C22.3394 19.8032 22.0176 20.125 21.6206 20.125Z" fill="#E6762A"/>
<path d="M19.9856 10.3959L21.2571 9.72535C21.0157 9.26858 20.7396 8.831 20.4312 8.4165L19.2812 9.27541C19.5443 9.63038 19.7798 10.005 19.9856 10.3959Z" fill="#E6762A"/>
<path d="M19.42 7.25008C19.0531 6.88877 18.6595 6.55554 18.2427 6.25317L17.3975 7.41611C17.7558 7.67769 18.0939 7.96604 18.4087 8.27861L19.42 7.25008Z" fill="#E6762A"/>
</g>
<defs>
<clipPath id="clip0_906_33">
<rect width="23" height="23" fill="white" transform="translate(0.776855)"/>
</clipPath>
</defs>
</svg>
