<svg width="25" height="42" viewBox="0 0 25 42" fill="none" xmlns="http://www.w3.org/2000/svg">
<path d="M22.0591 23.396H20.7222V22.0591C20.7222 21.8818 20.6518 21.7118 20.5264 21.5865C20.4011 21.4611 20.231 21.3907 20.0538 21.3907H18.7168V3.34229H19.3853C19.7397 3.34183 20.0795 3.20082 20.3301 2.95021C20.5807 2.69959 20.7217 2.3598 20.7222 2.00537V1.33692C20.7217 0.982487 20.5807 0.642707 20.3301 0.392087C20.0795 0.141467 19.7397 0.000464276 19.3853 0H4.67921C4.32478 0.000464276 3.985 0.141467 3.73438 0.392087C3.48376 0.642707 3.34276 0.982487 3.34229 1.33692V2.00537C3.34276 2.3598 3.48376 2.69959 3.73438 2.95021C3.985 3.20082 4.32478 3.34183 4.67921 3.34229H5.34767V21.3907H4.01075C3.83346 21.3907 3.66344 21.4611 3.53808 21.5865C3.41272 21.7118 3.34229 21.8818 3.34229 22.0591V23.396H2.00537C1.47373 23.3967 0.96407 23.6083 0.588142 23.9842C0.212215 24.3601 0.000707441 24.8698 0 25.4014V37.4337C0.000505959 37.8482 0.129279 38.2524 0.368646 38.5908C0.608013 38.9292 0.946243 39.1852 1.33692 39.3237V40.1075C1.33738 40.4619 1.47838 40.8017 1.729 41.0523C1.97962 41.303 2.3194 41.444 2.67383 41.4444H3.34229C3.69672 41.444 4.0365 41.303 4.28712 41.0523C4.53774 40.8017 4.67874 40.4619 4.67921 40.1075V39.439H19.3853V40.1075C19.3858 40.4619 19.5268 40.8017 19.7774 41.0523C20.028 41.303 20.3678 41.444 20.7222 41.4444H21.3907C21.7451 41.444 22.0849 41.303 22.3355 41.0523C22.5861 40.8017 22.7271 40.4619 22.7276 40.1075V39.3237C23.1183 39.1852 23.4565 38.9292 23.6959 38.5908C23.9352 38.2524 24.064 37.8482 24.0645 37.4337V25.4014C24.0638 24.8698 23.8523 24.3601 23.4764 23.9842C23.1004 23.6083 22.5908 23.3967 22.0591 23.396ZM19.3853 22.7276V23.396H16.7115V22.7276H19.3853ZM8.0215 21.3907H6.68458V3.34229H17.3799V21.3907H16.043C15.8657 21.3907 15.6957 21.4611 15.5703 21.5865C15.445 21.7118 15.3745 21.8818 15.3745 22.0591V23.396H8.68996V22.0591C8.68996 21.8818 8.61953 21.7118 8.49417 21.5865C8.36881 21.4611 8.19879 21.3907 8.0215 21.3907ZM4.67921 2.00537V1.33692H19.3853L19.3861 2.00537H4.67921ZM4.67921 22.7276H7.35304V23.396H4.67921V22.7276ZM3.34229 40.1075H2.67383V39.439H3.34229L3.34313 40.1075H3.34229ZM21.3907 40.1075H20.7222V39.439H21.3907L21.3915 40.1075H21.3907ZM22.7276 37.4337C22.7273 37.6109 22.6568 37.7808 22.5315 37.9061C22.4062 38.0314 22.2363 38.1019 22.0591 38.1021H2.00537C1.82816 38.1019 1.65828 38.0314 1.53297 37.9061C1.40766 37.7808 1.33716 37.6109 1.33692 37.4337V28.7437H8.20783L8.72422 30.292C8.76859 30.4251 8.85371 30.5409 8.96754 30.6229C9.08136 30.705 9.21811 30.7491 9.35842 30.7491H14.7061C14.8464 30.7491 14.9831 30.705 15.097 30.6229C15.2108 30.5409 15.2959 30.4251 15.3403 30.292L15.8567 28.7437H22.7276V37.4337ZM9.61744 28.7437H14.4471L14.224 29.4122H9.84054L9.61744 28.7437ZM22.7276 27.4068H1.33692V25.4014C1.33716 25.2242 1.40766 25.0543 1.53297 24.929C1.65828 24.8037 1.82816 24.7332 2.00537 24.733H22.0591C22.2363 24.7332 22.4062 24.8037 22.5315 24.929C22.6568 25.0543 22.7273 25.2242 22.7276 25.4014V27.4068Z" fill="white"/>
<path d="M2.67383 26.7383H6.01612C6.19341 26.7383 6.36343 26.6679 6.48879 26.5425C6.61415 26.4171 6.68458 26.2471 6.68458 26.0698C6.68458 25.8925 6.61415 25.7225 6.48879 25.5972C6.36343 25.4718 6.19341 25.4014 6.01612 25.4014H2.67383C2.49654 25.4014 2.32652 25.4718 2.20116 25.5972C2.0758 25.7225 2.00537 25.8925 2.00537 26.0698C2.00537 26.2471 2.0758 26.4171 2.20116 26.5425C2.32652 26.6679 2.49654 26.7383 2.67383 26.7383Z" fill="white"/>
<path d="M8.02149 26.7383H8.68994C8.86723 26.7383 9.03726 26.6679 9.16262 26.5425C9.28798 26.4171 9.3584 26.2471 9.3584 26.0698C9.3584 25.8925 9.28798 25.7225 9.16262 25.5972C9.03726 25.4718 8.86723 25.4014 8.68994 25.4014H8.02149C7.8442 25.4014 7.67417 25.4718 7.54881 25.5972C7.42345 25.7225 7.35303 25.8925 7.35303 26.0698C7.35303 26.2471 7.42345 26.4171 7.54881 26.5425C7.67417 26.6679 7.8442 26.7383 8.02149 26.7383Z" fill="white"/>
<path d="M6.86846 31.115C6.79057 30.9557 6.65263 30.834 6.48496 30.7764C6.3173 30.7189 6.13365 30.7303 5.9744 30.8082L2.37157 32.5704C2.21234 32.6483 2.09056 32.7862 2.03302 32.9539C1.97548 33.1215 1.9869 33.3052 2.06475 33.4644L3.82697 37.0673C3.90486 37.2265 4.04281 37.3483 4.21047 37.4058C4.37813 37.4634 4.56179 37.4519 4.72104 37.3741L8.32386 35.6119C8.48309 35.534 8.60487 35.396 8.66241 35.2284C8.71995 35.0607 8.70854 34.8771 8.63068 34.7178L6.86846 31.115ZM4.73407 35.8792L3.55959 33.4775L5.96136 32.303L7.13584 34.7048L4.73407 35.8792Z" fill="white"/>
<path d="M19.3853 30.0806C18.8564 30.0806 18.3395 30.2374 17.8998 30.5312C17.46 30.825 17.1173 31.2426 16.915 31.7312C16.7126 32.2197 16.6596 32.7574 16.7628 33.276C16.866 33.7947 17.1206 34.2711 17.4946 34.6451C17.8685 35.019 18.3449 35.2737 18.8636 35.3769C19.3823 35.48 19.9199 35.4271 20.4085 35.2247C20.8971 35.0223 21.3147 34.6796 21.6085 34.2399C21.9023 33.8002 22.0591 33.2832 22.0591 32.7544C22.0583 32.0455 21.7763 31.3659 21.2751 30.8646C20.7738 30.3633 20.0942 30.0814 19.3853 30.0806ZM19.3853 34.0913C19.1208 34.0913 18.8624 34.0129 18.6425 33.866C18.4227 33.7191 18.2513 33.5103 18.1501 33.266C18.0489 33.0217 18.0224 32.7529 18.074 32.4936C18.1256 32.2342 18.2529 31.996 18.4399 31.8091C18.6269 31.6221 18.8651 31.4948 19.1244 31.4432C19.3838 31.3916 19.6526 31.4181 19.8969 31.5192C20.1412 31.6204 20.35 31.7918 20.4969 32.0116C20.6438 32.2315 20.7222 32.49 20.7222 32.7544C20.7218 33.1088 20.5808 33.4487 20.3301 33.6993C20.0795 33.9499 19.7397 34.0909 19.3853 34.0913Z" fill="white"/>
</svg>
