<svg width="46" height="46" viewBox="0 0 46 46" fill="none" xmlns="http://www.w3.org/2000/svg">
<path d="M17.6278 15.3293V16.7048H13.7512L13.3065 19.2059C13.7419 18.7427 14.3533 18.5112 15.1406 18.5112C16.0392 18.5112 16.7663 18.8029 17.3221 19.3865C17.8779 19.9701 18.1558 20.7389 18.1558 21.6931C18.1558 22.7213 17.8316 23.5596 17.1832 24.208C16.5347 24.8564 15.7011 25.1806 14.6821 25.1806C13.7187 25.1806 12.936 24.9166 12.3339 24.3886C11.7411 23.8514 11.4261 23.1335 11.3891 22.2349H12.9592C12.9962 22.7352 13.1768 23.1335 13.5011 23.4299C13.8253 23.7263 14.2328 23.8745 14.7238 23.8745C15.2981 23.8745 15.7427 23.6939 16.0577 23.3326C16.3726 22.9621 16.5301 22.4434 16.5301 21.7764C16.5301 21.128 16.368 20.6278 16.0438 20.2758C15.7196 19.9145 15.2703 19.7339 14.696 19.7339C14.0013 19.7339 13.4594 20.0257 13.0703 20.6093L11.6808 20.5676L12.6118 15.3293H17.6278ZM22.5558 15.1903C24.816 15.1903 25.9461 16.8716 25.9461 20.2341C25.9461 21.8552 25.6635 23.0872 25.0985 23.9301C24.5334 24.7731 23.7044 25.1945 22.6113 25.1945C20.3511 25.1945 19.221 23.5318 19.221 20.2063C19.221 18.5667 19.5035 17.3208 20.0686 16.4686C20.6336 15.6164 21.4627 15.1903 22.5558 15.1903ZM22.5696 16.5242C22.2918 16.5242 22.0509 16.5798 21.8471 16.6909C21.6433 16.7928 21.4766 16.9549 21.3469 17.1773C21.2265 17.3903 21.1292 17.608 21.0551 17.8303C20.981 18.0434 20.9254 18.3166 20.8884 18.6501C20.8606 18.9836 20.8421 19.2615 20.8328 19.4838C20.8235 19.6968 20.8189 19.9701 20.8189 20.3036C20.8189 21.5541 20.9579 22.4619 21.2358 23.0269C21.5229 23.592 21.9768 23.8745 22.5974 23.8745C22.8383 23.8745 23.0513 23.8282 23.2366 23.7356C23.4311 23.6337 23.5886 23.5133 23.709 23.3743C23.8294 23.2354 23.9313 23.0501 24.0147 22.8185C24.0981 22.5869 24.1583 22.3785 24.1953 22.1933C24.2416 21.9987 24.2741 21.7625 24.2926 21.4846C24.3204 21.1975 24.3343 20.9798 24.3343 20.8316C24.3435 20.6741 24.3482 20.4749 24.3482 20.2341C24.3482 19.9192 24.3435 19.6783 24.3343 19.5116C24.3343 19.3356 24.3204 19.0762 24.2926 18.7335C24.2648 18.3815 24.2092 18.0989 24.1259 17.8859C24.0518 17.6728 23.9499 17.4505 23.8202 17.2189C23.6998 16.9874 23.533 16.816 23.32 16.7048C23.1069 16.5844 22.8568 16.5242 22.5696 16.5242ZM30.2766 15.1903C32.5368 15.1903 33.6669 16.8716 33.6669 20.2341C33.6669 21.8552 33.3843 23.0872 32.8193 23.9301C32.2542 24.7731 31.4252 25.1945 30.3321 25.1945C28.0719 25.1945 26.9418 23.5318 26.9418 20.2063C26.9418 18.5667 27.2243 17.3208 27.7894 16.4686C28.3545 15.6164 29.1835 15.1903 30.2766 15.1903ZM30.2905 16.5242C30.0126 16.5242 29.7717 16.5798 29.5679 16.6909C29.3641 16.7928 29.1974 16.9549 29.0677 17.1773C28.9473 17.3903 28.85 17.608 28.7759 17.8303C28.7018 18.0434 28.6462 18.3166 28.6092 18.6501C28.5814 18.9836 28.5629 19.2615 28.5536 19.4838C28.5443 19.6968 28.5397 19.9701 28.5397 20.3036C28.5397 21.5541 28.6787 22.4619 28.9566 23.0269C29.2437 23.592 29.6976 23.8745 30.3182 23.8745C30.5591 23.8745 30.7721 23.8282 30.9574 23.7356C31.1519 23.6337 31.3094 23.5133 31.4298 23.3743C31.5502 23.2354 31.6521 23.0501 31.7355 22.8185C31.8189 22.5869 31.8791 22.3785 31.9161 22.1933C31.9625 21.9987 31.9949 21.7625 32.0134 21.4846C32.0412 21.1975 32.0551 20.9798 32.0551 20.8316C32.0643 20.6741 32.069 20.4749 32.069 20.2341C32.069 19.9192 32.0643 19.6783 32.0551 19.5116C32.0551 19.3356 32.0412 19.0762 32.0134 18.7335C31.9856 18.3815 31.93 18.0989 31.8467 17.8859C31.7726 17.6728 31.6707 17.4505 31.541 17.2189C31.4206 16.9874 31.2538 16.816 31.0408 16.7048C30.8277 16.5844 30.5776 16.5242 30.2905 16.5242Z" fill="#473B35"/>
<path d="M12.0826 31.3158H11.3821V28.0297H12.3374L13.2544 30.6407H13.2672L14.1524 28.0297H15.1076V31.3158H14.4071V29.1314H14.3944L13.6111 31.3158H12.8787L12.0954 29.1314H12.0826V31.3158ZM18.8083 30.2905C18.7277 30.6471 18.5515 30.9252 18.2798 31.1247C18.0123 31.3243 17.6917 31.4241 17.3181 31.4241C16.8214 31.4241 16.4265 31.2648 16.1336 30.9464C15.8449 30.6238 15.7005 30.2119 15.7005 29.711C15.7005 29.1972 15.8491 28.7727 16.1463 28.4373C16.4478 28.1019 16.8299 27.9342 17.2926 27.9342C17.7724 27.9342 18.1524 28.0997 18.4326 28.4309C18.7128 28.7578 18.8529 29.2057 18.8529 29.7746V29.8511H16.4265C16.435 30.1822 16.5178 30.4391 16.6749 30.6216C16.832 30.8 17.0506 30.8891 17.3309 30.8891C17.5304 30.8891 17.6917 30.8424 17.8149 30.749C17.9422 30.6514 18.042 30.4985 18.1142 30.2905H18.8083ZM18.1269 29.3671C18.1057 29.0911 18.0186 28.8746 17.8658 28.7175C17.7172 28.5561 17.524 28.4755 17.2863 28.4755C17.0485 28.4755 16.8553 28.5519 16.7068 28.7047C16.5624 28.8576 16.4732 29.0784 16.4393 29.3671H18.1269ZM21.8712 28.6028H20.7886V31.3158H20.0626V28.6028H18.9799V28.0297H21.8712V28.6028ZM22.9785 28.0297V28.4691C23.1992 28.1125 23.5559 27.9342 24.0483 27.9342C24.5026 27.9342 24.8656 28.0934 25.1373 28.4118C25.4091 28.7302 25.5449 29.1548 25.5449 29.6855C25.5449 30.2034 25.4112 30.6195 25.1437 30.9337C24.8805 31.2436 24.5281 31.3986 24.0866 31.3986C23.6195 31.3986 23.2629 31.2266 23.0167 30.8827V32.5322H22.297V28.0297H22.9785ZM23.9019 28.5201C23.6174 28.5201 23.3945 28.622 23.2332 28.8257C23.0719 29.0295 22.9912 29.3119 22.9912 29.6727C22.9912 30.0294 23.0719 30.3096 23.2332 30.5134C23.3988 30.7172 23.6259 30.8191 23.9146 30.8191C24.1906 30.8191 24.4092 30.7172 24.5706 30.5134C24.7319 30.3096 24.8126 30.0336 24.8126 29.6855C24.8126 29.3288 24.7298 29.0465 24.5642 28.8385C24.4029 28.6262 24.1821 28.5201 23.9019 28.5201ZM27.6995 27.9342C28.2005 27.9342 28.5996 28.0913 28.8968 28.4054C29.194 28.7196 29.3426 29.142 29.3426 29.6727C29.3426 30.2077 29.194 30.6323 28.8968 30.9464C28.6039 31.2606 28.2048 31.4177 27.6995 31.4177C27.1858 31.4177 26.7782 31.2606 26.4768 30.9464C26.1754 30.6323 26.0246 30.2077 26.0246 29.6727C26.0246 29.142 26.1754 28.7196 26.4768 28.4054C26.7825 28.0913 27.1901 27.9342 27.6995 27.9342ZM28.3619 28.8194C28.2005 28.6113 27.9755 28.5073 27.6868 28.5073C27.3981 28.5073 27.171 28.6113 27.0054 28.8194C26.8398 29.0274 26.757 29.3119 26.757 29.6727C26.757 30.0421 26.8398 30.3308 27.0054 30.5388C27.171 30.7469 27.4002 30.8509 27.6932 30.8509C27.9776 30.8509 28.2005 30.7469 28.3619 30.5388C28.5274 30.3266 28.6102 30.0357 28.6102 29.6664C28.6102 29.3055 28.5274 29.0232 28.3619 28.8194ZM32.8884 30.386C32.8884 30.6832 32.7822 30.9125 32.5699 31.0738C32.3619 31.2351 32.0647 31.3158 31.6784 31.3158H29.9525V28.0297H31.7675C32.0732 28.0297 32.311 28.0997 32.4808 28.2398C32.6549 28.38 32.7419 28.5774 32.7419 28.8321C32.7419 29.0062 32.7037 29.1463 32.6273 29.2524C32.5508 29.3586 32.432 29.4498 32.2706 29.5263V29.539C32.6825 29.6451 32.8884 29.9275 32.8884 30.386ZM31.6784 29.8638H30.6785V30.7681H31.6784C32.0053 30.7681 32.1687 30.6195 32.1687 30.3223C32.1687 30.178 32.1263 30.0655 32.0414 29.9848C31.9565 29.9041 31.8355 29.8638 31.6784 29.8638ZM31.5828 28.5774H30.6785V29.3352H31.6019C31.8822 29.3352 32.0223 29.2036 32.0223 28.9404C32.0223 28.6984 31.8758 28.5774 31.5828 28.5774Z" fill="#473B35"/>
<rect opacity="0.5" x="3" y="3" width="40" height="40" rx="4.54545" stroke="#473B35" stroke-width="4.54545"/>
</svg>
