<svg width="28" height="28" viewBox="0 0 28 28" fill="none" xmlns="http://www.w3.org/2000/svg">
<path d="M15.7998 27.9242H11.5094C11.072 27.9242 10.7174 27.5695 10.7174 27.1321V19.7545H10.1125C8.49297 19.7545 7.17529 18.4368 7.17529 16.8172C7.17529 15.1976 8.49291 13.8799 10.1125 13.8799H10.7174V11.0688C10.7174 8.01591 13.201 5.53223 16.2539 5.53223H18.0278C19.5282 5.53223 20.7489 6.75293 20.7489 8.25337C20.7489 9.75375 19.5282 10.9745 18.0278 10.9745H17.3074C16.9128 10.9745 16.5918 11.2955 16.5918 11.6901V13.8801H17.766C19.37 13.8801 20.6875 15.1849 20.7031 16.7888C20.7108 17.5787 20.4089 18.3229 19.853 18.8841C19.297 19.4454 18.5559 19.7545 17.766 19.7545H16.5918V27.1321C16.5919 27.5695 16.2373 27.9242 15.7998 27.9242ZM12.3016 26.34H15.0078V18.9623C15.0078 18.5249 15.3624 18.1702 15.7999 18.1702H17.7661C18.13 18.1702 18.4715 18.0278 18.7275 17.7693C18.9836 17.5108 19.1227 17.1679 19.1191 16.804C19.1119 16.0652 18.505 15.4641 17.7661 15.4641H15.7998C15.3623 15.4641 15.0077 15.1094 15.0077 14.672V11.6899C15.0077 10.4219 16.0393 9.39019 17.3074 9.39019H18.0279C18.6548 9.39019 19.1648 8.88019 19.1648 8.25321C19.1648 7.62627 18.6548 7.11622 18.0279 7.11622H16.254C14.0746 7.11622 12.3016 8.88925 12.3016 11.0686V14.6719C12.3016 15.1093 11.947 15.4639 11.5095 15.4639H10.1126C9.36653 15.4639 8.75956 16.0709 8.75956 16.8171C8.75956 17.5631 9.36653 18.1701 10.1126 18.1701H11.5095C11.947 18.1701 12.3016 18.5247 12.3016 18.9622V26.34H12.3016Z" fill="#FCFCFC"/>
<path d="M23.5864 27.9243H21.5267C21.0892 27.9243 20.7346 27.5697 20.7346 27.1322C20.7346 26.6947 21.0892 26.3401 21.5267 26.3401H23.5864C25.1047 26.3401 26.3401 25.1048 26.3401 23.5864V4.33786C26.3401 2.81953 25.1048 1.58416 23.5864 1.58416H11.6915C11.254 1.58416 10.8994 1.22954 10.8994 0.792078C10.8994 0.354616 11.254 0 11.6915 0H23.5864C25.9784 0 27.9243 1.94592 27.9243 4.33786V23.5864C27.9243 25.9783 25.9784 27.9243 23.5864 27.9243Z" fill="#FCFCFC"/>
<path d="M15.7997 27.9243H4.33786C1.94592 27.9243 0 25.9783 0 23.5864V4.33786C0 1.94592 1.94592 0 4.33786 0H6.12043C6.5579 0 6.91251 0.354616 6.91251 0.792078C6.91251 1.22954 6.5579 1.58416 6.12043 1.58416H4.33786C2.81953 1.58416 1.58416 2.81948 1.58416 4.33786V23.5864C1.58416 25.1047 2.81948 26.3401 4.33786 26.3401H15.7997C16.2372 26.3401 16.5918 26.6947 16.5918 27.1322C16.5918 27.5697 16.2372 27.9243 15.7997 27.9243Z" fill="#FCFCFC"/>
</svg>
