<svg width="29" height="28" viewBox="0 0 29 28" fill="none" xmlns="http://www.w3.org/2000/svg">
<path d="M24.435 27.9242H22.3752C21.9378 27.9242 21.5832 27.5696 21.5832 27.1321C21.5832 26.6947 21.9378 26.3401 22.3752 26.3401H24.435C25.9533 26.3401 27.1887 25.1047 27.1887 23.5864V4.33785C27.1887 2.81953 25.9534 1.58415 24.435 1.58415H12.5401C12.1027 1.58415 11.748 1.22954 11.748 0.792077C11.748 0.354616 12.1027 0 12.5401 0H24.4351C26.8269 0 28.7729 1.94591 28.7729 4.33785V23.5864C28.7729 25.9783 26.827 27.9242 24.435 27.9242Z" fill="#FCFCFC"/>
<path d="M16.6484 27.9242H5.18649C2.79455 27.9242 0.848633 25.9783 0.848633 23.5864V4.33785C0.848633 1.94591 2.79455 0 5.18649 0H6.96905C7.40646 0 7.76113 0.354616 7.76113 0.792077C7.76113 1.22954 7.40646 1.58415 6.96905 1.58415H5.18649C3.66816 1.58415 2.43279 2.81947 2.43279 4.33785V23.5864C2.43279 25.1047 3.66811 26.3401 5.18649 26.3401H16.6484C17.0858 26.3401 17.4405 26.6947 17.4405 27.1321C17.4405 27.5696 17.0858 27.9242 16.6484 27.9242Z" fill="#FCFCFC"/>
<path d="M9.16045 6.06641H20.4609C21.7013 6.06641 22.7068 7.07188 22.7068 8.31223V19.6127C22.7068 20.8531 21.7013 21.8586 20.4609 21.8586H9.16045C7.92007 21.8586 6.91455 20.8531 6.91455 19.6127V8.31231C6.91455 7.07192 7.92007 6.06641 9.16045 6.06641ZM10.2323 13.9625C10.2323 16.4911 12.2822 18.5409 14.8107 18.5409C17.3393 18.5409 19.3892 16.4911 19.3892 13.9625C19.3892 11.4339 17.3394 9.38402 14.8107 9.38402C12.2821 9.38402 10.2323 11.4339 10.2323 13.9625Z" stroke="white"/>
<path d="M20.4611 23.1503H9.16078C7.2099 23.1503 5.6228 21.5632 5.6228 19.6124V8.3119C5.6228 6.36108 7.2099 4.77393 9.16078 4.77393H20.4611C22.412 4.77393 23.9991 6.36102 23.9991 8.3119V19.6123C23.9991 21.5631 22.412 23.1503 20.4611 23.1503ZM9.16078 6.35813C8.08341 6.35813 7.20696 7.23458 7.20696 8.31196V19.6124C7.20696 20.6897 8.08341 21.5662 9.16078 21.5662H20.4611C21.5385 21.5662 22.415 20.6897 22.415 19.6124V8.3119C22.415 7.23458 21.5385 6.35808 20.4611 6.35808H9.16078V6.35813ZM14.811 18.8327C12.1253 18.8327 9.94042 16.6478 9.94042 13.9621C9.94042 11.2765 12.1253 9.0916 14.811 9.0916C17.4966 9.0916 19.6815 11.2765 19.6815 13.9621C19.6815 16.6478 17.4966 18.8327 14.811 18.8327ZM14.811 10.6758C12.9988 10.6758 11.5246 12.15 11.5246 13.9621C11.5246 15.7743 12.9988 17.2485 14.811 17.2485C16.6231 17.2485 18.0973 15.7743 18.0973 13.9621C18.0973 12.15 16.623 10.6758 14.811 10.6758Z" fill="#FCFCFC"/>
<path d="M19.7415 10.0875C20.3575 10.0875 20.8568 9.58816 20.8568 8.97221C20.8568 8.35626 20.3575 7.85693 19.7415 7.85693C19.1255 7.85693 18.6262 8.35626 18.6262 8.97221C18.6262 9.58816 19.1255 10.0875 19.7415 10.0875Z" fill="#FCFCFC"/>
</svg>
