<svg width="68" height="68" viewBox="0 0 68 68" fill="none" xmlns="http://www.w3.org/2000/svg">
<rect width="47.3498" height="47.3498" rx="11.2912" transform="matrix(0.706187 0.708026 -0.706187 0.708026 33.8794 0)" fill="white"/>
<path fill-rule="evenodd" clip-rule="evenodd" d="M24.8125 50.0757L30.5397 55.8178C32.2776 57.5603 35.0954 57.5603 36.8333 55.8178L48.7479 43.8721L47.8508 43.7722H43.0203C40.5812 43.7722 37.0898 44.3955 34.6507 45.3066C32.2116 46.2177 30.0115 47.1287 27.8115 48.3275C26.7429 48.9098 25.6554 49.557 24.8125 50.0757ZM54.1813 38.4246L55.6886 36.9134C57.4266 35.1709 57.4266 32.3458 55.6886 30.6033L38.9402 13.8113L40.2942 16.4402C41.2189 18.7578 43.5368 24.4 45.4116 28.4279C47.2864 32.4558 49.2537 36.4037 50.003 37.8742C50.6566 37.9062 52.3656 38.0468 53.9725 38.3537C54.0536 38.3692 54.123 38.3931 54.1813 38.4246ZM31.005 11.2922C30.843 11.4152 30.6874 11.5507 30.5397 11.6989L11.6843 30.6033C9.94638 32.3458 9.94637 35.1709 11.6843 36.9134L19.3905 44.6396C20.7151 42.5521 23.0461 38.6549 25.1811 34.3738C28.1133 28.4941 29.1058 26.2143 30.0372 24.0749L30.0375 24.0741C30.1086 23.9107 30.1794 23.7482 30.2507 23.5849C31.255 21.2832 32.929 16.8238 32.9768 16.4402C33.0062 16.2043 31.9263 13.5174 31.005 11.2922ZM31.9724 33.942C31.0542 35.8984 28.8159 39.7441 27.8115 41.4224C29.9318 40.6072 34.6603 38.8618 36.6116 38.4014C38.5629 37.9411 42.1754 37.7621 43.7377 37.7301C42.7493 35.908 40.5716 31.8801 39.7681 30.3457C38.9646 28.8113 37.1695 25.0711 36.3724 23.3928L35.7985 24.9752C35.4159 26.0301 33.1203 31.4965 31.9724 33.942Z" fill="url(#paint0_linear_2817_3190)"/>
<defs>
<linearGradient id="paint0_linear_2817_3190" x1="33.6942" y1="57.2894" x2="33.6942" y2="9.57645" gradientUnits="userSpaceOnUse">
<stop stop-color="#E3672E"/>
<stop offset="1" stop-color="#FCDC0D"/>
</linearGradient>
</defs>
</svg>
