<svg width="67" height="81" viewBox="0 0 67 81" fill="none" xmlns="http://www.w3.org/2000/svg">
<path fill-rule="evenodd" clip-rule="evenodd" d="M20.9196 54.4228L30.1509 63.6541C31.9245 65.4277 34.7999 65.4277 36.5734 63.6541L54.5567 45.6708L53.2117 45.5199H46.4424C43.0243 45.5199 38.1316 46.3999 34.7134 47.6861C31.2953 48.9722 28.2122 50.2584 25.1291 51.9507C23.6287 52.7744 22.1018 53.6898 20.9196 54.4228ZM62.1876 38.04L65.3942 34.8333C67.1677 33.0598 67.1677 30.1844 65.3942 28.4108L41.2662 4.28283L42.6221 6.93484C43.9179 10.2067 47.1663 18.1719 49.7936 23.8581C52.4209 29.5443 55.1777 35.1177 56.2278 37.1936C57.1438 37.2388 59.5387 37.4373 61.7907 37.8706C61.9573 37.9026 62.0885 37.9601 62.1876 38.04ZM29.741 0L1.33014 28.4108C-0.443379 30.1844 -0.443381 33.0598 1.33014 34.8333L13.2945 46.7977C15.1448 43.864 18.4329 38.3323 21.4429 32.2521C25.552 23.9516 26.9429 20.7331 28.2481 17.713L28.25 17.7085C28.3492 17.4789 28.4479 17.2505 28.5473 17.0211C29.9548 13.7718 32.3006 7.47639 32.3676 6.93484C32.4074 6.61354 30.9996 3.0704 29.741 0ZM30.9601 31.6428C29.6732 34.4047 26.5366 39.8337 25.1291 42.2029C28.1004 41.0522 34.7268 38.5881 37.4613 37.9383C40.1958 37.2884 45.2583 37.0357 47.4477 36.9906C46.0626 34.4182 43.0108 28.732 41.8848 26.5658C40.7588 24.3997 38.2432 19.1196 37.1262 16.7503L36.3219 18.9842C35.7857 20.4735 32.5686 28.1905 30.9601 31.6428Z" fill="url(#paint0_linear_906_46)"/>
<path d="M10.6119 77.918L11.3559 76.106H15.5679L16.3119 77.918H17.7519L14.2119 69.518H12.7119L9.15989 77.918H10.6119ZM13.2999 71.318C13.3479 71.186 13.3959 71.054 13.4559 70.85C13.5159 71.054 13.5639 71.186 13.6119 71.318L15.0879 74.906H11.8239L13.2999 71.318ZM22.0064 77.918C23.3384 77.918 23.9024 77.222 23.9024 76.334C23.9024 75.626 23.4584 75.17 22.9184 75.002C23.4104 74.786 23.7344 74.33 23.7344 73.694C23.7344 72.794 23.0744 72.158 21.9104 72.158H18.6224V77.918H22.0064ZM19.9064 75.47H21.7184C22.1624 75.47 22.6064 75.626 22.6064 76.214C22.6064 76.766 22.2224 76.946 21.6944 76.946H19.9064V75.47ZM19.9064 73.13H21.6224C22.0184 73.13 22.4384 73.298 22.4384 73.862C22.4384 74.378 22.0784 74.558 21.6224 74.558H19.9064V73.13ZM26.3006 77.918L29.3846 74.15V77.918H30.6686V72.158H29.5646L26.4806 75.926V72.158H25.1966V77.918H26.3006ZM34.9507 77.918V73.286H36.9307V72.158H31.6747V73.286H33.6667V77.918H34.9507ZM37.4225 75.038C37.4225 77.066 38.9225 78.074 40.6865 78.074C41.4905 78.074 42.2225 77.93 42.7505 77.678V76.574C42.2585 76.814 41.6225 76.982 40.9265 76.982C39.8705 76.982 38.8625 76.55 38.7185 75.518H43.0505C43.4225 73.85 42.6305 72.002 40.3385 72.002C39.0065 72.002 37.4225 72.95 37.4225 75.038ZM41.8985 74.558H38.7065C38.7545 73.586 39.5345 73.07 40.3985 73.07C41.6585 73.07 41.9705 74.054 41.8985 74.558ZM46.6253 73.25H48.5693V77.918H49.8533V72.158H45.4133C45.3053 75.014 45.0413 76.934 44.0693 76.934C43.9493 76.934 43.8293 76.91 43.6973 76.862V77.87C43.9853 77.978 44.2493 78.026 44.4893 78.026C46.0253 78.026 46.4573 76.034 46.6253 73.25ZM54.3143 77.918C55.7663 77.918 56.5943 77.078 56.5943 75.998C56.5943 74.906 55.7663 74.078 54.3143 74.078H52.7423V72.158H51.4583V77.918H54.3143ZM52.7423 75.086H54.0623C54.8183 75.086 55.2863 75.398 55.2863 75.998C55.2863 76.586 54.8183 76.898 54.0623 76.898H52.7423V75.086Z" fill="#473B35"/>
<defs>
<linearGradient id="paint0_linear_906_46" x1="33.3732" y1="65.2178" x2="33.3732" y2="-2.43275" gradientUnits="userSpaceOnUse">
<stop stop-color="#E3672E"/>
<stop offset="1" stop-color="#FCDC0D"/>
</linearGradient>
</defs>
</svg>
