<svg width="84" height="83" viewBox="0 0 84 83" fill="none" xmlns="http://www.w3.org/2000/svg">
<path fill-rule="evenodd" clip-rule="evenodd" d="M26.1988 69.4877L37.2548 80.5437C39.8749 83.1638 44.1228 83.1638 46.7429 80.5437L68.8156 58.4711L67.2184 58.2936H58.6177C54.2748 58.2936 48.0585 59.4006 43.7156 61.0186C39.3727 62.6365 35.4556 64.2545 31.5384 66.3833C29.6358 67.4174 27.6996 68.5666 26.1988 69.4877ZM78.4897 48.7969L82.0327 45.254C84.6527 42.6339 84.6527 38.3859 82.0327 35.7659L51.3527 5.08585L53.7639 9.75525C55.4102 13.8711 59.5374 23.891 62.8755 31.044C66.2136 38.197 69.7163 45.2081 71.0504 47.8195C72.2142 47.8763 75.257 48.1261 78.1182 48.6711C78.2625 48.6986 78.3859 48.7409 78.4897 48.7969ZM37.1932 0.53772L1.96504 35.7659C-0.655016 38.3859 -0.655013 42.6339 1.96505 45.254L16.545 59.8339C18.9035 56.1265 23.0537 49.2057 26.8549 41.6032C32.0757 31.1616 33.8429 27.1129 35.5012 23.3137C35.628 23.023 35.7543 22.7338 35.8814 22.4433C37.6696 18.3559 40.65 10.4365 40.7352 9.75525C40.7879 9.33372 38.8402 4.50379 37.1932 0.53772ZM38.9468 40.8368C37.3118 44.3111 33.3265 51.1405 31.5383 54.121C35.3135 52.6733 43.7325 49.5737 47.2068 48.7562C50.6811 47.9387 57.1132 47.6208 59.8949 47.564C58.135 44.3281 54.2576 37.1751 52.827 34.4502C51.3964 31.7252 48.2003 25.0831 46.781 22.1027L45.7592 24.9128C45.0779 26.7862 40.9905 36.4939 38.9468 40.8368Z" fill="url(#paint0_linear_35_1083)"/>
<defs>
<linearGradient id="paint0_linear_35_1083" x1="42.0128" y1="82.8034" x2="42.0128" y2="-2.53095" gradientUnits="userSpaceOnUse">
<stop stop-color="#E3672E"/>
<stop offset="1" stop-color="#FCDC0D"/>
</linearGradient>
</defs>
</svg>
