<svg width="34" height="43" viewBox="0 0 34 43" fill="none" xmlns="http://www.w3.org/2000/svg">
<path d="M33.32 0H0.68C0.499653 0 0.326692 0.0716426 0.199168 0.199167C0.0716428 0.326692 0 0.499653 0 0.68V41.48C0 41.6603 0.0716428 41.8333 0.199168 41.9608C0.326692 42.0884 0.499653 42.16 0.68 42.16H4.76C4.94035 42.16 5.11331 42.0884 5.24083 41.9608C5.36836 41.8333 5.44 41.6603 5.44 41.48V40.12H28.56V41.48C28.56 41.6603 28.6316 41.8333 28.7592 41.9608C28.8867 42.0884 29.0597 42.16 29.24 42.16H33.32C33.5003 42.16 33.6733 42.0884 33.8008 41.9608C33.9284 41.8333 34 41.6603 34 41.48V0.68C34 0.499653 33.9284 0.326692 33.8008 0.199167C33.6733 0.0716426 33.5003 0 33.32 0ZM1.36 1.36H25.84V6.8H1.36V1.36ZM4.08 40.8H1.36V40.12H4.08V40.8ZM32.64 40.8H29.92V40.12H32.64V40.8ZM32.64 38.76H1.36V8.16H32.64V38.76ZM32.64 6.8H27.2V1.36H32.64V6.8Z" fill="white"/>
<path d="M29.9201 23.7999C29.9201 16.6758 24.1242 10.8799 17.0001 10.8799C9.87597 10.8799 4.08008 16.6758 4.08008 23.7999C4.08008 30.924 9.87597 36.7199 17.0001 36.7199C24.1242 36.7199 29.9201 30.924 29.9201 23.7999ZM17.0001 35.3599C10.6258 35.3599 5.44008 30.174 5.44008 23.7999C5.44008 17.4257 10.6258 12.2399 17.0001 12.2399C23.3743 12.2399 28.5601 17.4257 28.5601 23.7999C28.5601 30.174 23.3743 35.3599 17.0001 35.3599Z" fill="white"/>
<path d="M17.0001 13.6001C14.9827 13.6001 13.0106 14.1983 11.3332 15.3191C9.65586 16.4399 8.3485 18.0329 7.57648 19.8967C6.80447 21.7605 6.60247 23.8114 6.99604 25.79C7.38961 27.7686 8.36107 29.5861 9.78756 31.0126C11.2141 32.4391 13.0315 33.4105 15.0101 33.8041C16.9887 34.1977 19.0396 33.9957 20.9034 33.2237C22.7672 32.4517 24.3603 31.1443 25.481 29.4669C26.6018 27.7895 27.2001 25.8175 27.2001 23.8001C27.197 21.0958 26.1214 18.5032 24.2092 16.591C22.297 14.6788 19.7043 13.6032 17.0001 13.6001ZM17.0001 32.6401C15.2517 32.6401 13.5425 32.1216 12.0888 31.1503C10.6351 30.1789 9.50204 28.7983 8.83296 27.183C8.16388 25.5677 7.98882 23.7903 8.32991 22.0755C8.67101 20.3607 9.51293 18.7856 10.7492 17.5493C11.9855 16.313 13.5607 15.471 15.2755 15.13C16.9902 14.7889 18.7677 14.9639 20.383 15.633C21.9983 16.3021 23.3789 17.4351 24.3502 18.8889C25.3216 20.3426 25.8401 22.0517 25.8401 23.8001C25.8374 26.1438 24.9052 28.3907 23.2479 30.048C21.5907 31.7052 19.3438 32.6374 17.0001 32.6401Z" fill="white"/>
<path d="M17 16.3198C15.0169 16.3221 13.1156 17.1109 11.7133 18.5131C10.3111 19.9154 9.52227 21.8167 9.52002 23.7998C9.52002 23.9802 9.59166 24.1531 9.71919 24.2807C9.84671 24.4082 10.0197 24.4798 10.2 24.4798C10.3804 24.4798 10.5533 24.4082 10.6809 24.2807C10.8084 24.1531 10.88 23.9802 10.88 23.7998C10.8818 22.1773 11.5272 20.6217 12.6745 19.4743C13.8219 18.327 15.3775 17.6816 17 17.6798C17.1804 17.6798 17.3533 17.6082 17.4809 17.4807C17.6084 17.3531 17.68 17.1802 17.68 16.9998C17.68 16.8195 17.6084 16.6465 17.4809 16.519C17.3533 16.3915 17.1804 16.3198 17 16.3198Z" fill="white"/>
<path d="M2.72004 5.44004H5.44004C5.62039 5.44004 5.79335 5.3684 5.92087 5.24087C6.0484 5.11335 6.12004 4.94039 6.12004 4.76004V2.72004C6.12004 2.53969 6.0484 2.36673 5.92087 2.23921C5.79335 2.11168 5.62039 2.04004 5.44004 2.04004H2.72004C2.53969 2.04004 2.36673 2.11168 2.23921 2.23921C2.11168 2.36673 2.04004 2.53969 2.04004 2.72004V4.76004C2.04004 4.94039 2.11168 5.11335 2.23921 5.24087C2.36673 5.3684 2.53969 5.44004 2.72004 5.44004ZM3.40004 3.40004H4.76004V4.08004H3.40004V3.40004Z" fill="white"/>
<path d="M7.48005 3.40004H14.28C14.4604 3.40004 14.6334 3.3284 14.7609 3.20087C14.8884 3.07335 14.96 2.90039 14.96 2.72004C14.96 2.53969 14.8884 2.36673 14.7609 2.23921C14.6334 2.11168 14.4604 2.04004 14.28 2.04004H7.48005C7.2997 2.04004 7.12674 2.11168 6.99922 2.23921C6.87169 2.36673 6.80005 2.53969 6.80005 2.72004C6.80005 2.90039 6.87169 3.07335 6.99922 3.20087C7.12674 3.3284 7.2997 3.40004 7.48005 3.40004Z" fill="white"/>
<path d="M7.48005 5.44008H9.52005C9.7004 5.44008 9.87336 5.36844 10.0009 5.24091C10.1284 5.11339 10.2 4.94043 10.2 4.76008C10.2 4.57973 10.1284 4.40677 10.0009 4.27925C9.87336 4.15172 9.7004 4.08008 9.52005 4.08008H7.48005C7.2997 4.08008 7.12674 4.15172 6.99922 4.27925C6.87169 4.40677 6.80005 4.57973 6.80005 4.76008C6.80005 4.94043 6.87169 5.11339 6.99922 5.24091C7.12674 5.36844 7.2997 5.44008 7.48005 5.44008Z" fill="white"/>
<path d="M12.2399 4.08008H11.5599C11.3795 4.08008 11.2066 4.15172 11.079 4.27925C10.9515 4.40677 10.8799 4.57973 10.8799 4.76008C10.8799 4.94043 10.9515 5.11339 11.079 5.24091C11.2066 5.36844 11.3795 5.44008 11.5599 5.44008H12.2399C12.4202 5.44008 12.5932 5.36844 12.7207 5.24091C12.8482 5.11339 12.9199 4.94043 12.9199 4.76008C12.9199 4.57973 12.8482 4.40677 12.7207 4.27925C12.5932 4.15172 12.4202 4.08008 12.2399 4.08008Z" fill="white"/>
<path d="M29.9199 6.12004C30.3234 6.12004 30.7178 6.0004 31.0532 5.77624C31.3887 5.55208 31.6502 5.23347 31.8046 4.86071C31.959 4.48795 31.9994 4.07778 31.9207 3.68206C31.842 3.28633 31.6477 2.92284 31.3624 2.63754C31.0771 2.35224 30.7136 2.15795 30.3179 2.07924C29.9221 2.00052 29.512 2.04092 29.1392 2.19533C28.7664 2.34973 28.4478 2.6112 28.2237 2.94668C27.9995 3.28215 27.8799 3.67657 27.8799 4.08004C27.8805 4.62089 28.0956 5.13942 28.4781 5.52187C28.8605 5.90431 29.379 6.11943 29.9199 6.12004ZM29.9199 3.40004C30.0544 3.40004 30.1858 3.43992 30.2977 3.51464C30.4095 3.58936 30.4967 3.69556 30.5481 3.81982C30.5996 3.94407 30.6131 4.08079 30.5868 4.2127C30.5606 4.34461 30.4958 4.46577 30.4007 4.56087C30.3056 4.65597 30.1845 4.72074 30.0525 4.74697C29.9206 4.77321 29.7839 4.75975 29.6597 4.70828C29.5354 4.65681 29.4292 4.56965 29.3545 4.45783C29.2798 4.346 29.2399 4.21453 29.2399 4.08004C29.2401 3.89975 29.3118 3.72691 29.4393 3.59943C29.5668 3.47195 29.7396 3.40024 29.9199 3.40004Z" fill="white"/>
<path d="M31.2798 36.72H26.5198C26.3395 36.72 26.1665 36.7916 26.039 36.9191C25.9115 37.0467 25.8398 37.2196 25.8398 37.4C25.8398 37.5803 25.9115 37.7533 26.039 37.8808C26.1665 38.0083 26.3395 38.08 26.5198 38.08H31.2798C31.4602 38.08 31.6332 38.0083 31.7607 37.8808C31.8882 37.7533 31.9598 37.5803 31.9598 37.4C31.9598 37.2196 31.8882 37.0467 31.7607 36.9191C31.6332 36.7916 31.4602 36.72 31.2798 36.72Z" fill="white"/>
<path d="M31.2801 34.6802H29.2401C29.0597 34.6802 28.8868 34.7518 28.7592 34.8793C28.6317 35.0069 28.5601 35.1798 28.5601 35.3602C28.5601 35.5405 28.6317 35.7135 28.7592 35.841C28.8868 35.9685 29.0597 36.0402 29.2401 36.0402H31.2801C31.4604 36.0402 31.6334 35.9685 31.7609 35.841C31.8884 35.7135 31.9601 35.5405 31.9601 35.3602C31.9601 35.1798 31.8884 35.0069 31.7609 34.8793C31.6334 34.7518 31.4604 34.6802 31.2801 34.6802Z" fill="white"/>
<path d="M5.44004 34H2.72004C2.53969 34 2.36673 34.0716 2.23921 34.1992C2.11168 34.3267 2.04004 34.4997 2.04004 34.68V37.4C2.04004 37.5803 2.11168 37.7533 2.23921 37.8808C2.36673 38.0084 2.53969 38.08 2.72004 38.08H5.44004C5.62039 38.08 5.79335 38.0084 5.92087 37.8808C6.0484 37.7533 6.12004 37.5803 6.12004 37.4V34.68C6.12004 34.4997 6.0484 34.3267 5.92087 34.1992C5.79335 34.0716 5.62039 34 5.44004 34ZM4.76004 36.72H3.40004V35.36H4.76004V36.72Z" fill="white"/>
</svg>
