<svg width="41" height="37" viewBox="0 0 41 37" fill="none" xmlns="http://www.w3.org/2000/svg">
<path d="M4.60065 7.88721H5.91516C6.61243 7.88721 7.28113 7.61023 7.77417 7.11719C8.26721 6.62415 8.5442 5.95545 8.5442 5.25818C8.5442 4.56092 8.26721 3.89222 7.77417 3.39918C7.28113 2.90614 6.61243 2.62915 5.91516 2.62915H3.94339C3.76908 2.62915 3.6019 2.6984 3.47864 2.82166C3.35538 2.94492 3.28613 3.11209 3.28613 3.28641V9.20173C3.28613 9.37605 3.35538 9.54322 3.47864 9.66648C3.6019 9.78974 3.76908 9.85899 3.94339 9.85899C4.11771 9.85899 4.28488 9.78974 4.40814 9.66648C4.5314 9.54322 4.60065 9.37605 4.60065 9.20173V7.88721ZM7.22968 5.25818C7.22927 5.60669 7.09064 5.9408 6.84421 6.18723C6.59778 6.43366 6.26367 6.57229 5.91516 6.5727H4.60065V3.94367H5.91516C6.26367 3.94408 6.59778 4.08271 6.84421 4.32914C7.09064 4.57557 7.22927 4.90968 7.22968 5.25818Z" fill="white"/>
<path d="M29.543 24.768C29.4994 24.6371 29.4157 24.5233 29.3038 24.4426C29.1919 24.362 29.0574 24.3186 28.9195 24.3186H21.0324C20.8944 24.3186 20.76 24.362 20.648 24.4426C20.5361 24.5233 20.4524 24.6371 20.4088 24.768L19.0943 28.7116C19.0613 28.8104 19.0524 28.9156 19.0681 29.0185C19.0838 29.1215 19.1237 29.2192 19.1846 29.3037C19.2455 29.3882 19.3256 29.457 19.4183 29.5045C19.511 29.5519 19.6137 29.5767 19.7179 29.5767H30.234C30.3381 29.5767 30.4408 29.5519 30.5335 29.5045C30.6262 29.457 30.7063 29.3882 30.7672 29.3037C30.8281 29.2192 30.8681 29.1215 30.8838 29.0185C30.8995 28.9156 30.8905 28.8104 30.8576 28.7116L29.543 24.768ZM20.6298 28.2622L21.5061 25.6331H28.4457L29.322 28.2622H20.6298Z" fill="white"/>
<path d="M15.7741 24.3186C15.2541 24.3186 14.7458 24.4728 14.3134 24.7617C13.8811 25.0506 13.5441 25.4612 13.3451 25.9415C13.1462 26.4219 13.0941 26.9506 13.1955 27.4605C13.297 27.9705 13.5474 28.439 13.915 28.8066C14.2827 29.1743 14.7512 29.4247 15.2612 29.5262C15.7711 29.6276 16.2997 29.5755 16.7801 29.3765C17.2605 29.1776 17.6711 28.8406 17.96 28.4082C18.2489 27.9759 18.4031 27.4676 18.4031 26.9476C18.4023 26.2506 18.1251 25.5824 17.6322 25.0895C17.1393 24.5966 16.4711 24.3194 15.7741 24.3186ZM15.7741 28.2622C15.5141 28.2622 15.2599 28.1851 15.0437 28.0406C14.8276 27.8962 14.6591 27.6909 14.5596 27.4507C14.4601 27.2105 14.4341 26.9462 14.4848 26.6912C14.5355 26.4362 14.6607 26.202 14.8446 26.0181C15.0284 25.8343 15.2626 25.7091 15.5176 25.6584C15.7726 25.6077 16.0369 25.6337 16.2771 25.7332C16.5173 25.8327 16.7226 26.0012 16.867 26.2173C17.0115 26.4335 17.0886 26.6876 17.0886 26.9476C17.0882 27.2961 16.9495 27.6303 16.7031 27.8767C16.4567 28.1231 16.1226 28.2617 15.7741 28.2622Z" fill="white"/>
<path d="M34.1774 24.3186C33.6574 24.3186 33.1491 24.4728 32.7168 24.7617C32.2844 25.0506 31.9474 25.4612 31.7485 25.9415C31.5495 26.4219 31.4974 26.9506 31.5989 27.4605C31.7003 27.9705 31.9507 28.439 32.3184 28.8066C32.686 29.1743 33.1545 29.4247 33.6645 29.5262C34.1745 29.6276 34.7031 29.5755 35.1835 29.3765C35.6639 29.1776 36.0745 28.8406 36.3633 28.4082C36.6522 27.9759 36.8064 27.4676 36.8064 26.9476C36.8056 26.2506 36.5284 25.5824 36.0355 25.0895C35.5426 24.5966 34.8744 24.3194 34.1774 24.3186ZM34.1774 28.2622C33.9174 28.2622 33.6632 28.1851 33.4471 28.0406C33.2309 27.8962 33.0624 27.6909 32.9629 27.4507C32.8634 27.2105 32.8374 26.9462 32.8881 26.6912C32.9388 26.4362 33.064 26.202 33.2479 26.0181C33.4317 25.8343 33.6659 25.7091 33.9209 25.6584C34.1759 25.6077 34.4402 25.6337 34.6804 25.7332C34.9206 25.8327 35.1259 26.0012 35.2704 26.2173C35.4148 26.4335 35.4919 26.6876 35.4919 26.9476C35.4915 27.2961 35.3529 27.6303 35.1064 27.8767C34.86 28.1231 34.5259 28.2617 34.1774 28.2622Z" fill="white"/>
<path d="M40.0927 35.4919H38.0076C38.0827 35.2809 38.121 35.0586 38.121 34.8347V33.5202H38.7782C38.9525 33.5202 39.1197 33.4509 39.243 33.3277C39.3662 33.2044 39.4355 33.0372 39.4355 32.8629V30.8911C39.4355 30.7168 39.3662 30.5496 39.243 30.4264C39.1197 30.3031 38.9525 30.2339 38.7782 30.2339V24.9758C38.7774 24.2788 38.5002 23.6105 38.0073 23.1177C37.5145 22.6248 36.8462 22.3476 36.1492 22.3468H34.7262L33.8677 17.6285L33.8036 17.276C33.694 16.67 33.375 16.1218 32.9022 15.7272C32.4295 15.3325 31.8331 15.1165 31.2173 15.1169H18.7343C18.1185 15.1165 17.5221 15.3325 17.0494 15.7272C16.5766 16.1218 16.2576 16.67 16.148 17.276L16.0839 17.6285L15.2254 22.3468H13.8024C13.1054 22.3476 12.4371 22.6248 11.9443 23.1177C11.4514 23.6105 11.1742 24.2788 11.1734 24.9758V30.2339C10.9991 30.2339 10.8319 30.3031 10.7086 30.4264C10.5854 30.5496 10.5161 30.7168 10.5161 30.8911V32.8629C10.5161 33.0372 10.5854 33.2044 10.7086 33.3277C10.8319 33.4509 10.9991 33.5202 11.1734 33.5202H11.8306V34.8347C11.8306 35.0586 11.8689 35.2809 11.944 35.4919H10.5161V34.1774C10.5161 34.0031 10.4469 33.8359 10.3236 33.7127C10.2004 33.5894 10.0332 33.5202 9.85887 33.5202H6.57258V14.4597H7.22984C7.40415 14.4597 7.57133 14.3904 7.69459 14.2672C7.81785 14.1439 7.8871 13.9767 7.8871 13.8024V12.4879H10.5161C10.6904 12.4879 10.8576 12.4187 10.9809 12.2954C11.1041 12.1721 11.1734 12.005 11.1734 11.8306V0.657258C11.1734 0.482942 11.1041 0.315766 10.9809 0.192507C10.8576 0.0692468 10.6904 0 10.5161 0H1.31452C1.1402 0 0.973024 0.0692468 0.849765 0.192507C0.726505 0.315766 0.657258 0.482942 0.657258 0.657258V11.8306C0.657258 12.005 0.726505 12.1721 0.849765 12.2954C0.973024 12.4187 1.1402 12.4879 1.31452 12.4879H3.94355V13.8024C3.94355 13.9767 4.0128 14.1439 4.13605 14.2672C4.25932 14.3904 4.42649 14.4597 4.60081 14.4597H5.25806V33.5202H1.97177C1.79746 33.5202 1.63028 33.5894 1.50702 33.7127C1.38376 33.8359 1.31452 34.0031 1.31452 34.1774V35.4919H0.657258C0.482942 35.4919 0.315766 35.5612 0.192506 35.6844C0.0692466 35.8077 0 35.9749 0 36.1492C0 36.3235 0.0692466 36.4907 0.192506 36.6139C0.315766 36.7372 0.482942 36.8064 0.657258 36.8064H40.0927C40.2671 36.8064 40.4342 36.7372 40.5575 36.6139C40.6808 36.4907 40.75 36.3235 40.75 36.1492C40.75 35.9749 40.6808 35.8077 40.5575 35.6844C40.4342 35.5612 40.2671 35.4919 40.0927 35.4919ZM6.57258 13.1452H5.25806V12.4879H6.57258V13.1452ZM1.97177 11.1734V1.31452H9.85887V11.1734H1.97177ZM9.20161 35.4919H2.62903V34.8347H9.20161V35.4919ZM18.7343 16.4314H31.2173C31.4481 16.4312 31.6749 16.4919 31.8749 16.6073C32.0748 16.7227 32.2407 16.8887 32.356 17.0887H17.5956C17.7109 16.8887 17.8768 16.7227 18.0768 16.6073C18.2767 16.4919 18.5035 16.4312 18.7343 16.4314ZM17.2793 18.4032H32.6723L33.3895 22.3468H16.5621L17.2793 18.4032ZM12.4879 24.9758C12.4884 24.6273 12.627 24.2932 12.8734 24.0468C13.1198 23.8004 13.4539 23.6617 13.8024 23.6613H36.1492C36.4977 23.6617 36.8318 23.8004 37.0782 24.0468C37.3246 24.2932 37.4633 24.6273 37.4637 24.9758V30.2339H12.4879V24.9758ZM15.7742 34.8347C15.774 35.0089 15.7046 35.176 15.5814 35.2992C15.4582 35.4224 15.2912 35.4917 15.1169 35.4919H13.8024C13.6282 35.4917 13.4611 35.4224 13.3379 35.2992C13.2147 35.176 13.1454 35.0089 13.1452 34.8347V33.5202H15.7742V34.8347ZM16.9753 35.4919C17.0504 35.2809 17.0888 35.0586 17.0887 34.8347V33.5202H32.8629V34.8347C32.8628 35.0586 32.9012 35.2809 32.9763 35.4919H16.9753ZM36.8065 34.8347C36.8062 35.0089 36.7369 35.176 36.6137 35.2992C36.4905 35.4224 36.3234 35.4917 36.1492 35.4919H34.8347C34.6604 35.4917 34.4934 35.4224 34.3702 35.2992C34.247 35.176 34.1777 35.0089 34.1774 34.8347V33.5202H36.8065V34.8347ZM11.8306 32.2056V31.5484H38.121V32.2056H11.8306Z" fill="white"/>
</svg>
