<svg width="21" height="21" viewBox="0 0 21 21" fill="none" xmlns="http://www.w3.org/2000/svg">
<path d="M15.7868 5.79569L16.7885 4.95427C16.4773 4.58341 16.1263 4.24788 15.7417 3.95386L14.948 4.99418C15.2558 5.23014 15.5371 5.49889 15.7868 5.79569Z" fill="#E6762A"/>
<path d="M20.9374 9.81439V8.50581H18.2809C18.2007 7.68827 17.9677 6.89301 17.5939 6.16147L16.4306 6.76146C16.7126 7.3062 16.8952 7.8969 16.9697 8.50581H6.58807C6.94965 5.63767 9.56785 3.60568 12.436 3.96722C12.9602 4.03331 13.4714 4.17835 13.9521 4.3975L14.4965 3.20603C13.8436 2.90837 13.1458 2.72108 12.4316 2.65185V1.30859H13.7401V0H9.81439V1.30859H11.123V2.65054C8.02903 2.96558 5.58271 5.4119 5.26771 8.50581H4.2529L2.29002 5.88863H0V7.19722H1.63573L3.27146 9.37798V15.7959C1.87193 16.1573 1.03035 17.5848 1.39168 18.9843C1.75305 20.3838 3.18052 21.2254 4.58005 20.8641C5.97958 20.5028 6.82116 19.0752 6.45983 17.6757C6.22179 16.7539 5.50195 16.034 4.58005 15.7959V14.3944H11.7773V13.0859H4.58005V9.81439H18.3202V13.0859H15.703V14.3944H18.3202V15.703C16.8575 15.6857 15.6578 16.8574 15.6404 18.32C15.6231 19.7827 16.7948 20.9825 18.2574 20.9998C19.7201 21.0171 20.9199 19.8455 20.9372 18.3828C20.9485 17.4319 20.4491 16.5479 19.6288 16.0668V9.81439H20.9374ZM5.23434 18.3202C5.23434 19.0429 4.64846 19.6288 3.92576 19.6288C3.20305 19.6288 2.61717 19.0429 2.61717 18.3202C2.61717 17.5975 3.20305 17.0116 3.92576 17.0116C4.64846 17.0116 5.23434 17.5975 5.23434 18.3202ZM18.3202 19.6288C17.5975 19.6288 17.0116 19.0429 17.0116 18.3202C17.0116 17.5975 17.5975 17.0116 18.3202 17.0116C19.0429 17.0116 19.6288 17.5975 19.6288 18.3202C19.6288 19.0429 19.0429 19.6288 18.3202 19.6288Z" fill="#E6762A"/>
<path d="M14.3943 13.0858H13.0857V14.3944H14.3943V13.0858Z" fill="#E6762A"/>
</svg>
