<svg width="37" height="42" viewBox="0 0 37 42" fill="none" xmlns="http://www.w3.org/2000/svg">
<path d="M8.72879 0C6.41454 0.00248826 4.19578 0.922925 2.55935 2.55935C0.922925 4.19578 0.00248826 6.41454 0 8.72879V25.5149C0 25.693 0.0707415 25.8638 0.196662 25.9897C0.322583 26.1156 0.493367 26.1864 0.671446 26.1864H1.34289V34.2437C1.34289 36.2026 2.12105 38.0812 3.50617 39.4664C4.8913 40.8515 6.76993 41.6296 8.72879 41.6296C10.6877 41.6296 12.5663 40.8515 13.9514 39.4664C15.3365 38.0812 16.1147 36.2026 16.1147 34.2437V26.1864H16.7861C16.9642 26.1864 17.135 26.1156 17.2609 25.9897C17.3868 25.8638 17.4576 25.693 17.4576 25.5149V8.72879C17.4551 6.41454 16.5347 4.19578 14.8982 2.55935C13.2618 0.922925 11.0431 0.00248826 8.72879 0ZM14.7718 34.2437C14.7718 35.8464 14.1351 37.3835 13.0018 38.5168C11.8686 39.6501 10.3315 40.2867 8.72879 40.2867C7.12609 40.2867 5.58902 39.6501 4.45574 38.5168C3.32246 37.3835 2.68578 35.8464 2.68578 34.2437V26.1864H14.7718V34.2437ZM16.1147 24.8435H1.34289V23.5006H16.1147V24.8435ZM16.1147 22.1577H1.34289V8.72879C1.34289 6.76993 2.12105 4.8913 3.50617 3.50617C4.8913 2.12105 6.76993 1.34289 8.72879 1.34289C10.6877 1.34289 12.5663 2.12105 13.9514 3.50617C15.3365 4.8913 16.1147 6.76993 16.1147 8.72879V22.1577Z" fill="white"/>
<path d="M8.72882 38.9438C9.97494 38.9424 11.1696 38.4468 12.0508 37.5657C12.9319 36.6845 13.4275 35.4898 13.4289 34.2437C13.4289 34.0656 13.3582 33.8948 13.2323 33.7689C13.1064 33.643 12.9356 33.5723 12.7575 33.5723C12.5794 33.5723 12.4086 33.643 12.2827 33.7689C12.1568 33.8948 12.086 34.0656 12.086 34.2437C12.085 35.1338 11.731 35.9871 11.1016 36.6165C10.4722 37.2459 9.6189 37.5999 8.72882 37.6009C8.55074 37.6009 8.37995 37.6717 8.25403 37.7976C8.12811 37.9235 8.05737 38.0943 8.05737 38.2724C8.05737 38.4505 8.12811 38.6212 8.25403 38.7472C8.37995 38.8731 8.55074 38.9438 8.72882 38.9438Z" fill="white"/>
<path d="M27.5294 38.9438C28.7755 38.9424 29.9702 38.4468 30.8513 37.5657C31.7324 36.6845 32.2281 35.4898 32.2295 34.2437C32.2295 34.0656 32.1587 33.8948 32.0328 33.7689C31.9069 33.643 31.7361 33.5723 31.558 33.5723C31.38 33.5723 31.2092 33.643 31.0832 33.7689C30.9573 33.8948 30.8866 34.0656 30.8866 34.2437C30.8856 35.1338 30.5316 35.9871 29.9022 36.6165C29.2728 37.2459 28.4194 37.5999 27.5294 37.6009C27.3513 37.6009 27.1805 37.6717 27.0546 37.7976C26.9287 37.9235 26.8579 38.0943 26.8579 38.2724C26.8579 38.4505 26.9287 38.6212 27.0546 38.7472C27.1805 38.8731 27.3513 38.9438 27.5294 38.9438Z" fill="white"/>
<path d="M27.5293 0C25.2151 0.00248826 22.9963 0.922925 21.3599 2.55935C19.7235 4.19578 18.803 6.41454 18.8005 8.72879V25.5149C18.8005 25.693 18.8713 25.8638 18.9972 25.9897C19.1231 26.1156 19.2939 26.1864 19.472 26.1864H20.1434V34.2437C20.1434 36.2026 20.9216 38.0812 22.3067 39.4664C23.6918 40.8515 25.5705 41.6296 27.5293 41.6296C29.4882 41.6296 31.3668 40.8515 32.752 39.4664C34.1371 38.0812 34.9152 36.2026 34.9152 34.2437V26.1864H35.5867C35.7648 26.1864 35.9355 26.1156 36.0615 25.9897C36.1874 25.8638 36.2581 25.693 36.2581 25.5149V8.72879C36.2556 6.41454 35.3352 4.19578 33.6988 2.55935C32.0623 0.922925 29.8436 0.00248826 27.5293 0ZM33.5723 34.2437C33.5723 35.8464 32.9357 37.3835 31.8024 38.5168C30.6691 39.6501 29.132 40.2867 27.5293 40.2867C25.9266 40.2867 24.3896 39.6501 23.2563 38.5168C22.123 37.3835 21.4863 35.8464 21.4863 34.2437V26.1864H33.5723V34.2437ZM34.9152 24.8435H20.1434V23.5006H34.9152V24.8435ZM34.9152 22.1577H20.1434V8.72879C20.1434 6.76993 20.9216 4.8913 22.3067 3.50617C23.6918 2.12105 25.5705 1.34289 27.5293 1.34289C29.4882 1.34289 31.3668 2.12105 32.752 3.50617C34.1371 4.8913 34.9152 6.76993 34.9152 8.72879V22.1577Z" fill="white"/>
</svg>
