<svg width="21" height="21" viewBox="0 0 21 21" fill="none" xmlns="http://www.w3.org/2000/svg">
<path d="M20.4285 10.301C21.1768 9.57168 21.1923 8.37378 20.4629 7.62545C20.1721 7.32704 19.7908 7.13298 19.3784 7.07338L14.7188 6.39675C14.53 6.3689 14.3668 6.25052 14.2817 6.07976L12.198 1.85522C11.7357 0.918075 10.6012 0.53316 9.66403 0.995476C9.29069 1.17965 8.98847 1.48187 8.80429 1.85522L6.71922 6.07976C6.63427 6.25035 6.4713 6.36869 6.28278 6.39675L1.62181 7.07338C0.587576 7.22281 -0.129708 8.18231 0.0196797 9.21658C0.0792791 9.62898 0.273295 10.0102 0.571702 10.301L3.94438 13.589C4.08085 13.7223 4.14319 13.9142 4.11108 14.1023L3.31635 18.7442C3.13649 19.7717 3.82362 20.7505 4.85117 20.9304C5.26475 21.0028 5.69065 20.9353 6.06161 20.7387L10.2304 18.548C10.3994 18.4588 10.6015 18.4588 10.7705 18.548L14.9399 20.7394C15.8642 21.2261 17.008 20.8713 17.4948 19.947C17.689 19.5782 17.7559 19.1556 17.6852 18.7449L16.8891 14.1023C16.857 13.9142 16.9193 13.7224 17.0558 13.5891L20.4285 10.301ZM15.5949 14.324L16.3916 18.966C16.4463 19.2813 16.2351 19.5813 15.9198 19.6361C15.7935 19.658 15.6636 19.6374 15.5503 19.5776L11.3808 17.385C10.8294 17.0963 10.1715 17.0963 9.62002 17.385L5.45126 19.577C5.1682 19.7263 4.81766 19.6179 4.66831 19.3348C4.6085 19.2215 4.588 19.0915 4.6099 18.9653L5.40664 14.3234C5.51111 13.7095 5.3075 13.0835 4.86191 12.6485L1.48924 9.36183C1.2597 9.13828 1.25486 8.77096 1.47841 8.54142C1.56738 8.45008 1.68399 8.39056 1.81016 8.37214L6.46983 7.69485C7.08592 7.60518 7.61846 7.21818 7.89398 6.65988L9.97836 2.43599C10.1199 2.14891 10.4673 2.03094 10.7544 2.17245C10.8689 2.22889 10.9615 2.32151 11.0179 2.43599L13.1056 6.65988C13.3809 7.21863 13.9139 7.6058 14.5304 7.69485L19.1901 8.37214C19.5072 8.41812 19.7269 8.71247 19.6809 9.02958C19.6626 9.15596 19.6031 9.27274 19.5116 9.36183L16.1396 12.6518C15.6949 13.0862 15.4914 13.7111 15.5949 14.324Z" fill="#E6762A"/>
<path d="M6.21855 16.2895L7.32007 17.0033L8.03385 15.9018L6.93233 15.188L6.21855 16.2895Z" fill="#E6762A"/>
<path d="M7.64558 14.0858L8.74707 14.7983L9.45993 13.6963L8.35844 12.9838L7.64558 14.0858Z" fill="#E6762A"/>
<path d="M11.1576 6.94202H9.84497V8.2546H11.1576V6.94202Z" fill="#E6762A"/>
<path d="M11.1576 4.31702H9.84497V5.6296H11.1576V4.31702Z" fill="#E6762A"/>
<path d="M8.28095 9.72569L6.99829 9.4469L6.7195 10.7296L8.00215 11.0083L8.28095 9.72569Z" fill="#E6762A"/>
<path d="M4.1507 10.1712L5.43335 10.45L5.71214 9.1673L4.42949 8.8885L4.1507 10.1712Z" fill="#E6762A"/>
<path d="M12.9546 15.8993L13.6672 17.0005L14.7685 16.2878L14.0558 15.1866L12.9546 15.8993Z" fill="#E6762A"/>
<path d="M12.641 12.982L11.5396 13.6945L12.2524 14.7965L13.3539 14.084L12.641 12.982Z" fill="#E6762A"/>
<path d="M14.2855 10.7316L14.0068 9.44897L12.7242 9.72764L13.0028 11.0103L14.2855 10.7316Z" fill="#E6762A"/>
<path d="M16.5722 8.88905L15.2896 9.16785L15.5683 10.4505L16.851 10.1717L16.5722 8.88905Z" fill="#E6762A"/>
</svg>
