<svg width="29" height="28" viewBox="0 0 29 28" fill="none" xmlns="http://www.w3.org/2000/svg">
<path d="M24.5107 27.9243H22.4509C22.0135 27.9243 21.6589 27.5696 21.6589 27.1322C21.6589 26.6948 22.0135 26.3401 22.4509 26.3401H24.5107C26.0291 26.3401 27.2644 25.1048 27.2644 23.5864V4.33786C27.2644 2.81953 26.0291 1.58416 24.5107 1.58416H12.6158C12.1783 1.58416 11.8237 1.22949 11.8237 0.792078C11.8237 0.354671 12.1783 0 12.6158 0H24.5108C26.9026 0 28.8486 1.94592 28.8486 4.33786V23.5865C28.8486 25.9784 26.9027 27.9243 24.5107 27.9243Z" fill="#FCFCFC"/>
<path d="M16.7241 27.9243H5.26218C2.87023 27.9243 0.924316 25.9784 0.924316 23.5864V4.33786C0.924316 1.94592 2.87023 0 5.26218 0H7.04475C7.48221 0 7.83683 0.354671 7.83683 0.792078C7.83683 1.22949 7.48221 1.58416 7.04475 1.58416H5.26218C3.74385 1.58416 2.50847 2.81948 2.50847 4.33786V23.5865C2.50847 25.1048 3.7438 26.3402 5.26218 26.3402H16.7241C17.1615 26.3402 17.5162 26.6949 17.5162 27.1323C17.5162 27.5697 17.1615 27.9243 16.7241 27.9243Z" fill="#FCFCFC"/>
<path d="M23.2631 20.2389C22.6144 20.2389 21.8227 20.2208 21.4847 20.2131C21.3884 20.2109 21.3277 20.2095 21.3077 20.2093C20.5705 20.206 19.9056 19.9398 19.3856 19.4394C19.062 19.1279 18.7592 18.7989 18.4665 18.4805L18.4563 18.4694C18.3005 18.3003 18.1395 18.1253 17.9797 17.958C17.8392 17.811 17.7097 17.693 17.5839 17.5974C17.5111 17.5419 17.4577 17.5231 17.4352 17.5189C17.4242 17.5309 17.4025 17.5593 17.38 17.6161C17.2725 17.8874 17.1471 18.7167 17.1218 18.9627C17.0691 19.6612 16.5825 20.1208 15.8506 20.1609C15.618 20.1735 15.3901 20.18 15.1724 20.18C13.727 20.18 12.4975 19.8977 11.4135 19.3169C10.3376 18.7407 9.37996 17.9056 8.48589 16.7641C7.40966 15.3904 6.44475 13.8067 5.35739 11.6291C5.3112 11.5366 4.47811 9.76383 4.38561 9.53176C4.37181 9.49724 4.36052 9.46184 4.35168 9.42568C4.23562 8.94901 4.38168 8.51127 4.73297 8.28335C4.84014 8.21387 4.96242 8.17127 5.08955 8.15933C5.1382 8.15464 5.28616 8.14073 5.93693 8.14073C6.8502 8.14073 8.16351 8.16806 8.24134 8.17073C8.2463 8.17095 8.25132 8.17111 8.25628 8.17144C8.9293 8.20787 9.40074 8.54727 9.65746 9.18031C10.2509 10.6457 10.9544 11.8773 11.8079 12.9459C11.8725 13.0273 11.9555 13.1087 12.0483 13.1828C12.1201 12.9087 12.1799 12.4986 12.1837 12.2897C12.1991 11.5067 12.1815 10.9944 12.1392 10.2072C12.115 9.7629 11.9651 9.64924 11.6593 9.57496C11.3865 9.50864 11.1692 9.30286 11.0881 9.03414C11.007 8.76537 11.0742 8.47375 11.2648 8.26759C11.6772 7.82162 12.2148 7.73458 12.7344 7.70681C12.9926 7.69285 13.2734 7.68604 13.5924 7.68604C13.885 7.68604 14.178 7.69149 14.4611 7.69689C14.6559 7.70054 14.8506 7.7042 15.0452 7.70616C15.4239 7.70954 15.7586 7.74401 16.0672 7.81137C16.6288 7.93359 17.0092 8.34869 17.1103 8.95021C17.1508 9.18942 17.1686 9.42465 17.1634 9.64891C17.1554 10.0032 17.1436 10.3626 17.1321 10.7101L17.1314 10.7281C17.1147 11.2335 17.0976 11.7492 17.0918 12.2538C17.088 12.5759 17.1129 12.8697 17.1657 13.1281C17.4805 12.7936 17.7936 12.3972 18.1714 11.8555C18.6897 11.1119 19.141 10.2355 19.5918 9.09741C19.8708 8.39489 20.2007 8.16909 20.9498 8.16751C21.9943 8.16489 23.0392 8.16418 24.0838 8.16751C24.3522 8.1686 24.5797 8.20007 24.7799 8.26366C25.2905 8.42646 25.5511 8.8978 25.429 9.43697C25.2487 10.2371 24.8182 10.8908 24.4287 11.4409C24.0055 12.0383 23.563 12.634 23.1352 13.2101C22.9076 13.5164 22.684 13.8175 22.4622 14.1199C22.4005 14.2041 22.3388 14.302 22.2687 14.4279C22.1146 14.7068 22.1344 14.7273 22.3242 14.9233C22.5531 15.1592 22.7942 15.3947 23.0276 15.6223C23.3727 15.9592 23.7265 16.3045 24.0588 16.6679C24.4926 17.1432 24.8747 17.6404 25.1952 18.1465C25.4788 18.5944 25.5362 19.0794 25.3525 19.4768C25.2467 19.7059 24.9648 20.1056 24.2657 20.2049C24.1607 20.2194 23.9437 20.2389 23.2631 20.2389ZM17.4267 15.9336C17.8112 15.9336 18.1974 16.0731 18.5436 16.3369C18.7357 16.483 18.9262 16.6555 19.125 16.8635C19.295 17.0415 19.4611 17.2218 19.6217 17.3964L19.6321 17.4078C19.9092 17.709 20.1953 18.02 20.4841 18.298C20.7112 18.5166 20.9833 18.6236 21.3157 18.6251C21.335 18.6252 21.4063 18.6267 21.5154 18.6293C21.8534 18.637 22.6323 18.6547 23.263 18.6547C23.4092 18.6547 23.5297 18.6537 23.6282 18.6522C23.4087 18.341 23.1611 18.034 22.8891 17.7361C22.5878 17.4065 22.2504 17.0772 21.9241 16.7586C21.6802 16.5207 21.4311 16.2776 21.1866 16.0255C20.4963 15.3127 20.3973 14.5387 20.8838 13.6586C20.988 13.4717 21.0832 13.3213 21.1847 13.1828C21.4087 12.8775 21.6342 12.5739 21.8597 12.2702C22.2862 11.6961 22.7232 11.1076 23.1361 10.5249C23.3051 10.2863 23.4835 10.0249 23.628 9.75025C22.7647 9.74834 21.9006 9.74916 21.0366 9.75118C20.5487 10.972 20.0502 11.9304 19.4708 12.7613C19.0208 13.4066 18.6443 13.877 18.2497 14.2866C17.8261 14.726 17.3855 14.8181 17.0903 14.8181C16.3771 14.8181 15.8029 14.305 15.6274 13.511C15.5425 13.124 15.5024 12.6951 15.5078 12.2351C15.5138 11.7137 15.5311 11.1893 15.5479 10.6821L15.5487 10.6577C15.5601 10.3142 15.5718 9.95914 15.5796 9.61232C15.5817 9.52244 15.5768 9.42759 15.5648 9.32882C15.4046 9.30461 15.2282 9.2919 15.0298 9.29015C14.8298 9.28808 14.6305 9.28443 14.4313 9.28066C14.1376 9.27521 13.8314 9.26926 13.5392 9.27019C13.6424 9.52271 13.7039 9.80763 13.721 10.1216C13.7655 10.9485 13.7838 11.4883 13.7675 12.3195C13.7603 12.7174 13.6501 13.4307 13.4976 13.8564C13.2796 14.4707 12.7603 14.8538 12.143 14.8538C11.8372 14.8538 11.5309 14.7547 11.2573 14.567C10.9924 14.3855 10.7542 14.1662 10.5689 13.9331C9.61961 12.7446 8.84084 11.3841 8.18925 9.77539C8.18598 9.76737 8.18293 9.76028 8.18014 9.7539C8.17949 9.75385 8.17878 9.75374 8.17818 9.75374C8.05754 9.75041 7.03432 9.72991 6.21372 9.72571C6.45506 10.2451 6.73506 10.8416 6.77499 10.9225C7.81238 12.9999 8.72472 14.5005 9.73278 15.7872C10.4886 16.7523 11.283 17.45 12.1613 17.9206C13.0096 18.375 13.9944 18.5959 15.1722 18.5959C15.3016 18.5959 15.4358 18.5932 15.573 18.588C15.6249 18.1983 15.7401 17.4533 15.9072 17.0318C16.1809 16.3439 16.7487 15.9336 17.4267 15.9336Z" fill="#FCFCFC"/>
</svg>
