<svg width="20" height="20" fill="none" xmlns="http://www.w3.org/2000/svg"><path d="M18.125 0H15v1.25h3.125c.345 0 .625.28.625.625v16.25c0 .345-.28.625-.625.625H1.875a.625.625 0 0 1-.625-.625V1.875c0-.345.28-.625.625-.625H8.75V0H1.875C.839 0 0 .84 0 1.875v16.25C0 19.16.84 20 1.875 20h16.25C19.16 20 20 19.16 20 18.125V1.875C20 .839 19.16 0 18.125 0Z" fill="#E6762A"/><path d="M17.5 15.625v-7.5h-1.25v1.25H8.125a2.5 2.5 0 0 0-2.5-2.5H3.75v-2.5H2.5v11.25h1.25v-2.5h12.5v2.5h1.25Zm-13.75-7.5h1.875c.69 0 1.25.56 1.25 1.25H3.75v-1.25Zm0 3.75v-1.25h12.5v1.25H3.75ZM11.25 0H10v1.25h1.25V0Zm2.5 0H12.5v1.25h1.25V0Z" fill="#E6762A"/></svg>