<svg width="24" height="23" fill="none" xmlns="http://www.w3.org/2000/svg"><g clip-path="url(#a)" fill="#E6762A"><path d="M21.62 17.25h-.718v-1.438h1.527v-1.347a10.176 10.176 0 0 0-.555-3.322l-1.36.47c.308.889.469 1.822.477 2.762H3.563a8.723 8.723 0 0 1 8.714-8.625 8.619 8.619 0 0 1 3.993.967l.66-1.278c-.79-.402-1.63-.7-2.497-.883V2.875h1.438V1.437H8.683v1.438h1.438v1.673a10.167 10.167 0 0 0-7.996 9.919v1.345h1.527v1.438h-.719a2.156 2.156 0 1 0 0 4.313h18.688a2.156 2.156 0 1 0 0-4.313ZM11.559 2.875h1.438v1.438h-1.438V2.875ZM5.09 15.813h14.375v1.437H5.09v-1.438Zm16.532 4.312H2.933a.719.719 0 1 1 0-1.438h18.688a.719.719 0 1 1 0 1.438Z"/><path d="m19.986 10.396 1.271-.67a10.093 10.093 0 0 0-.826-1.31l-1.15.86c.263.354.499.729.705 1.12ZM19.42 7.25c-.367-.361-.76-.694-1.177-.997l-.845 1.163c.358.262.696.55 1.01.863L19.42 7.25Z"/></g><defs><clipPath id="a"><path fill="#fff" transform="translate(.777)" d="M0 0h23v23H0z"/></clipPath></defs></svg>