<svg width="38" height="37" fill="none" xmlns="http://www.w3.org/2000/svg"><path d="M37.172 31.688h-4.875v-1.22h3.656a.61.61 0 0 0 .61-.609v-2.437A17.67 17.67 0 0 0 19.5 9.762V9.14h2.438a.61.61 0 0 0 .609-.61V6.094a.61.61 0 0 0-.61-.61h-6.093a.61.61 0 0 0-.61.61V8.53a.61.61 0 0 0 .61.61h2.437v.62A17.67 17.67 0 0 0 1.22 27.421v2.438a.61.61 0 0 0 .61.61h3.655v1.218H.61a.61.61 0 0 0-.609.61v3.656a.61.61 0 0 0 .61.61h36.562a.61.61 0 0 0 .61-.61v-3.656a.61.61 0 0 0-.61-.61ZM16.453 7.922V6.703h4.875v1.219h-4.875ZM2.438 29.25v-1.828a16.453 16.453 0 0 1 28.087-11.635 16.347 16.347 0 0 1 4.819 11.635v1.828H2.437Zm28.64 1.219v1.218H6.703V30.47h24.375Zm5.485 4.875H1.218v-2.438h35.343v2.438Z" fill="#FCFCFC"/><path d="M6.703 33.516H2.437a.61.61 0 1 0 0 1.218h4.266a.61.61 0 1 0 0-1.218Zm2.437 0h-.609a.61.61 0 1 0 0 1.218h.61a.61.61 0 1 0 0-1.218Zm9.75-29.25a.61.61 0 0 0 .61-.61V.61a.61.61 0 1 0-1.219 0v3.047a.61.61 0 0 0 .61.61Zm-8.53 3.656h3.046a.61.61 0 1 0 0-1.219H10.36a.61.61 0 0 0 0 1.219Zm13.406-.609a.61.61 0 0 0 .609.609h3.047a.61.61 0 0 0 0-1.219h-3.047a.61.61 0 0 0-.61.61ZM13.605 4.64a.61.61 0 0 0 .843-.88l-1.774-1.697a.61.61 0 0 0-.842.88l1.773 1.698Zm9.617.17c.157 0 .308-.06.421-.17l1.774-1.697a.609.609 0 1 0-.843-.88L22.8 3.76a.61.61 0 0 0 .422 1.05Z" fill="#FCFCFC"/></svg>