<svg width="25" height="42" fill="none" xmlns="http://www.w3.org/2000/svg"><path d="M22.06 23.396h-1.338v-1.337a.668.668 0 0 0-.668-.668h-1.337V3.342h.668a1.339 1.339 0 0 0 1.337-1.337v-.668A1.339 1.339 0 0 0 19.385 0H4.68a1.339 1.339 0 0 0-1.337 1.337v.668A1.339 1.339 0 0 0 4.68 3.342h.669v18.049H4.01a.668.668 0 0 0-.669.668v1.337H2.005A2.008 2.008 0 0 0 0 25.401v12.033a2.008 2.008 0 0 0 1.337 1.89v.784a1.339 1.339 0 0 0 1.337 1.336h.668a1.338 1.338 0 0 0 1.337-1.337v-.668h14.706v.669a1.339 1.339 0 0 0 1.337 1.336h.669a1.338 1.338 0 0 0 1.337-1.337v-.783a2.008 2.008 0 0 0 1.336-1.89V25.4a2.008 2.008 0 0 0-2.005-2.005Zm-2.675-.668v.668h-2.674v-.668h2.674ZM8.021 21.39H6.685V3.342H17.38v18.049h-1.337a.668.668 0 0 0-.668.668v1.337H8.69v-1.337a.668.668 0 0 0-.668-.668ZM4.68 2.005v-.668h14.706l.001.668H4.68Zm0 20.723h2.674v.668H4.679v-.668Zm-1.337 17.38h-.668v-.669h.668l.001.669Zm18.049 0h-.669v-.669h.669v.669Zm1.337-2.674a.67.67 0 0 1-.669.668H2.005a.67.67 0 0 1-.668-.668v-8.69h6.87l.517 1.548a.668.668 0 0 0 .634.457h5.348a.668.668 0 0 0 .634-.457l.517-1.548h6.87v8.69Zm-13.11-8.69h4.83l-.224.668H9.841l-.224-.668Zm13.11-1.337H1.337V25.4a.67.67 0 0 1 .668-.668H22.06a.67.67 0 0 1 .669.668v2.006Z" fill="#fff"/><path d="M2.674 26.738h3.342a.668.668 0 1 0 0-1.337H2.674a.668.668 0 1 0 0 1.337Zm5.347 0h.669a.668.668 0 1 0 0-1.337h-.67a.668.668 0 1 0 0 1.337Zm-1.153 4.377a.669.669 0 0 0-.894-.307L2.372 32.57a.668.668 0 0 0-.307.894l1.762 3.603a.668.668 0 0 0 .894.307l3.603-1.762a.669.669 0 0 0 .307-.894l-1.763-3.603Zm-2.134 4.764L3.56 33.478l2.401-1.175 1.175 2.402-2.402 1.174Zm14.651-5.799a2.674 2.674 0 1 0 0 5.348 2.674 2.674 0 0 0 0-5.347Zm0 4.011a1.337 1.337 0 1 1 0-2.674 1.337 1.337 0 0 1 0 2.674Z" fill="#fff"/></svg>