<svg width="46" height="46" fill="none" xmlns="http://www.w3.org/2000/svg"><path d="M17.628 15.33v1.375H13.75l-.444 2.5c.435-.462 1.046-.694 1.834-.694.898 0 1.625.292 2.181.876.556.583.834 1.352.834 2.306 0 1.028-.324 1.867-.973 2.515-.648.648-1.482.973-2.5.973-.964 0-1.747-.264-2.35-.792-.592-.538-.907-1.255-.944-2.154h1.57c.037.5.218.899.542 1.195.324.296.732.445 1.223.445.574 0 1.019-.181 1.334-.542.315-.37.472-.89.472-1.557 0-.648-.162-1.148-.486-1.5-.324-.361-.774-.542-1.348-.542-.695 0-1.237.292-1.626.875l-1.39-.041.932-5.239h5.016Zm4.928-.14c2.26 0 3.39 1.682 3.39 5.044 0 1.621-.283 2.853-.848 3.696s-1.394 1.265-2.487 1.265c-2.26 0-3.39-1.663-3.39-4.989 0-1.64.282-2.885.848-3.737.565-.853 1.394-1.279 2.487-1.279Zm.014 1.334c-.278 0-.52.056-.723.167a1.2 1.2 0 0 0-.5.486 3.71 3.71 0 0 0-.292.653 3.84 3.84 0 0 0-.167.82c-.027.334-.046.612-.055.834-.01.213-.014.486-.014.82 0 1.25.139 2.158.417 2.723.287.565.74.848 1.361.848.241 0 .454-.047.64-.14.194-.101.352-.222.472-.36.12-.14.222-.325.306-.556a4.44 4.44 0 0 0 .18-.626c.047-.194.08-.43.098-.708.027-.287.041-.505.041-.653.01-.158.014-.357.014-.598 0-.315-.005-.556-.014-.722 0-.176-.014-.436-.041-.779-.028-.352-.084-.634-.167-.847a4.19 4.19 0 0 0-.306-.667 1.169 1.169 0 0 0-.5-.514 1.5 1.5 0 0 0-.75-.18Zm7.707-1.334c2.26 0 3.39 1.682 3.39 5.044 0 1.621-.283 2.853-.848 3.696s-1.394 1.265-2.487 1.265c-2.26 0-3.39-1.663-3.39-4.989 0-1.64.282-2.885.847-3.737.566-.853 1.394-1.279 2.488-1.279Zm.014 1.334c-.278 0-.52.056-.723.167a1.2 1.2 0 0 0-.5.486 3.71 3.71 0 0 0-.292.653 3.84 3.84 0 0 0-.167.82 19.89 19.89 0 0 0-.055.834c-.01.213-.014.486-.014.82 0 1.25.139 2.158.417 2.723.287.565.74.848 1.361.848.241 0 .454-.047.64-.14.194-.101.351-.222.472-.36.12-.14.222-.325.305-.556a4.44 4.44 0 0 0 .181-.626c.046-.194.079-.43.097-.708.028-.287.042-.505.042-.653.01-.158.014-.357.014-.598 0-.315-.005-.556-.014-.722 0-.176-.014-.436-.042-.779-.027-.352-.083-.634-.166-.847a4.19 4.19 0 0 0-.306-.667 1.169 1.169 0 0 0-.5-.514 1.5 1.5 0 0 0-.75-.18ZM12.083 31.316h-.7V28.03h.954l.917 2.61h.013l.885-2.61h.956v3.286h-.7V29.13h-.014l-.783 2.185h-.732l-.784-2.185h-.012v2.185Zm6.725-1.025a1.37 1.37 0 0 1-.528.834c-.268.2-.588.3-.962.3-.497 0-.892-.16-1.184-.479-.29-.322-.434-.734-.434-1.235 0-.514.15-.938.446-1.274a1.474 1.474 0 0 1 1.147-.503c.48 0 .86.166 1.14.497.28.327.42.775.42 1.344v.076h-2.427c.009.331.092.588.249.77.157.179.376.268.656.268.2 0 .36-.047.484-.14.127-.098.227-.25.3-.458h.693Zm-.681-.924c-.021-.276-.108-.492-.261-.65a.751.751 0 0 0-.58-.241.772.772 0 0 0-.58.229c-.144.153-.233.373-.267.662h1.688Zm3.744-.764H20.79v2.713h-.726v-2.713H18.98v-.573h2.891v.573Zm1.108-.573v.44c.22-.357.577-.536 1.07-.536.454 0 .817.16 1.088.478.272.318.408.743.408 1.274 0 .517-.134.933-.401 1.248-.263.31-.616.465-1.057.465-.468 0-.824-.172-1.07-.516v1.65h-.72V28.03h.681Zm.923.49c-.285 0-.508.102-.669.306-.161.203-.242.486-.242.847 0 .356.08.637.242.84.166.204.393.306.682.306a.792.792 0 0 0 .656-.306c.16-.203.242-.48.242-.828 0-.356-.083-.638-.249-.846a.787.787 0 0 0-.662-.319Zm3.797-.586c.502 0 .9.157 1.198.471.297.315.446.737.446 1.268 0 .535-.149.96-.446 1.273-.293.315-.692.472-1.197.472-.514 0-.922-.157-1.223-.472-.302-.314-.452-.738-.452-1.273 0-.531.15-.953.452-1.268.305-.314.713-.47 1.223-.47Zm.663.885c-.161-.208-.386-.312-.675-.312-.289 0-.516.104-.682.312-.165.208-.248.493-.248.854 0 .37.083.658.248.866.166.208.395.312.688.312a.8.8 0 0 0 .669-.312c.165-.212.248-.503.248-.873 0-.36-.083-.643-.248-.847Zm4.526 1.567c0 .297-.106.527-.318.688-.208.161-.505.242-.892.242h-1.726V28.03h1.815c.306 0 .544.07.714.21.174.14.26.337.26.592a.704.704 0 0 1-.114.42.904.904 0 0 1-.356.274v.013c.411.106.617.388.617.847Zm-1.21-.522h-1v.904h1c.327 0 .49-.149.49-.446a.443.443 0 0 0-.127-.337c-.084-.08-.205-.121-.363-.121Zm-.095-1.287h-.904v.758h.923c.28 0 .42-.131.42-.395 0-.242-.146-.363-.44-.363Z" fill="#473B35"/><rect opacity=".5" x="3" y="3" width="40" height="40" rx="4.545" stroke="#473B35" stroke-width="4.545"/></svg>