<svg width="28" height="28" fill="none" xmlns="http://www.w3.org/2000/svg"><path d="M15.8 27.924h-4.29a.792.792 0 0 1-.793-.792v-7.378h-.604a2.94 2.94 0 0 1-2.938-2.937 2.94 2.94 0 0 1 2.938-2.937h.604v-2.811a5.543 5.543 0 0 1 5.537-5.537h1.774c1.5 0 2.72 1.22 2.72 2.721 0 1.5-1.22 2.722-2.72 2.722h-.72a.716.716 0 0 0-.716.715v2.19h1.174a2.946 2.946 0 0 1 2.937 2.909 2.916 2.916 0 0 1-.85 2.095 2.917 2.917 0 0 1-2.087.87h-1.174v7.378a.792.792 0 0 1-.792.792Zm-3.498-1.584h2.706v-7.378c0-.437.354-.792.792-.792h1.966c.364 0 .706-.142.962-.4.256-.26.395-.602.391-.966a1.357 1.357 0 0 0-1.353-1.34H15.8a.792.792 0 0 1-.792-.792V11.69c0-1.268 1.031-2.3 2.3-2.3h.72a1.138 1.138 0 0 0 0-2.274h-1.774a3.957 3.957 0 0 0-3.952 3.953v3.603a.792.792 0 0 1-.793.792h-1.396c-.746 0-1.353.607-1.353 1.353s.607 1.353 1.353 1.353h1.396c.438 0 .793.355.793.792v7.378Z" fill="#FCFCFC"/><path d="M23.586 27.924h-2.06a.792.792 0 1 1 0-1.584h2.06a2.757 2.757 0 0 0 2.754-2.754V4.338a2.757 2.757 0 0 0-2.754-2.754H11.692a.792.792 0 1 1 0-1.584h11.894a4.343 4.343 0 0 1 4.338 4.338v19.248a4.343 4.343 0 0 1-4.338 4.338Zm-7.786 0H4.338A4.343 4.343 0 0 1 0 23.586V4.338A4.343 4.343 0 0 1 4.338 0H6.12a.792.792 0 1 1 0 1.584H4.338a2.757 2.757 0 0 0-2.754 2.754v19.248a2.757 2.757 0 0 0 2.754 2.754H15.8a.792.792 0 1 1 0 1.584Z" fill="#FCFCFC"/></svg>