<svg width="29" height="28" fill="none" xmlns="http://www.w3.org/2000/svg"><path d="M24.435 27.924h-2.06a.792.792 0 0 1 0-1.584h2.06a2.757 2.757 0 0 0 2.754-2.754V4.338a2.757 2.757 0 0 0-2.754-2.754H12.54a.792.792 0 0 1 0-1.584h11.895a4.343 4.343 0 0 1 4.338 4.338v19.248a4.343 4.343 0 0 1-4.338 4.338Zm-7.787 0H5.186A4.343 4.343 0 0 1 .85 23.586V4.338A4.343 4.343 0 0 1 5.186 0H6.97a.792.792 0 0 1 0 1.584H5.186a2.757 2.757 0 0 0-2.753 2.754v19.248a2.757 2.757 0 0 0 2.753 2.754h11.462a.792.792 0 1 1 0 1.584Z" fill="#FCFCFC"/><path d="M9.16 6.066h11.3a2.246 2.246 0 0 1 2.247 2.246v11.3a2.246 2.246 0 0 1-2.246 2.247H9.16a2.246 2.246 0 0 1-2.246-2.246v-11.3A2.246 2.246 0 0 1 9.16 6.065Zm1.072 7.897a4.578 4.578 0 1 0 9.157 0 4.578 4.578 0 0 0-9.157 0Z" stroke="#fff"/><path d="M20.461 23.15h-11.3a3.542 3.542 0 0 1-3.538-3.538v-11.3A3.542 3.542 0 0 1 9.16 4.774h11.3A3.542 3.542 0 0 1 24 8.312v11.3a3.542 3.542 0 0 1-3.538 3.538ZM9.161 6.358a1.956 1.956 0 0 0-1.954 1.954v11.3c0 1.078.876 1.954 1.954 1.954h11.3a1.956 1.956 0 0 0 1.954-1.954v-11.3a1.956 1.956 0 0 0-1.954-1.954h-11.3Zm5.65 12.475a4.876 4.876 0 0 1-4.87-4.87 4.876 4.876 0 0 1 4.87-4.871 4.876 4.876 0 0 1 4.87 4.87 4.876 4.876 0 0 1-4.87 4.87Zm0-8.157a3.29 3.29 0 0 0-3.286 3.286 3.29 3.29 0 0 0 3.286 3.287 3.29 3.29 0 0 0 3.286-3.287 3.29 3.29 0 0 0-3.286-3.286Z" fill="#FCFCFC"/><path d="M19.741 10.088a1.115 1.115 0 1 0 0-2.231 1.115 1.115 0 0 0 0 2.23Z" fill="#FCFCFC"/></svg>