<svg width="68" height="68" fill="none" xmlns="http://www.w3.org/2000/svg"><rect width="47.35" height="47.35" rx="11.291" transform="rotate(45.074 16.94 40.821)" fill="#fff"/><path fill-rule="evenodd" clip-rule="evenodd" d="m24.813 50.076 5.727 5.742a4.442 4.442 0 0 0 6.293 0l11.915-11.946-.897-.1h-4.83c-2.44 0-5.931.623-8.37 1.535-2.44.91-4.64 1.822-6.84 3.02a68.253 68.253 0 0 0-2.998 1.749ZM54.18 38.425l1.508-1.512a4.47 4.47 0 0 0 0-6.31L38.94 13.811l1.354 2.63c.925 2.317 3.243 7.959 5.118 11.987a334.055 334.055 0 0 0 4.591 9.446 32.5 32.5 0 0 1 3.97.48c.08.015.15.04.208.07ZM31.005 11.292a4.49 4.49 0 0 0-.465.407L11.684 30.603a4.47 4.47 0 0 0 0 6.31l7.707 7.727a121.91 121.91 0 0 0 5.79-10.266c2.932-5.88 3.925-8.16 4.856-10.3l.214-.49c1.004-2.3 2.678-6.76 2.726-7.144.03-.236-1.05-2.923-1.972-5.148Zm.967 22.65c-.918 1.956-3.156 5.802-4.16 7.48 2.12-.815 6.848-2.56 8.8-3.02 1.95-.46 5.563-.64 7.126-.672a878.738 878.738 0 0 1-3.97-7.384c-.803-1.535-2.599-5.275-3.396-6.953l-.574 1.582c-.382 1.055-2.678 6.521-3.826 8.967Z" fill="url(#a)"/><defs><linearGradient id="a" x1="33.694" y1="57.289" x2="33.694" y2="9.576" gradientUnits="userSpaceOnUse"><stop stop-color="#E3672E"/><stop offset="1" stop-color="#FCDC0D"/></linearGradient></defs></svg>