<svg width="67" height="81" fill="none" xmlns="http://www.w3.org/2000/svg"><path fill-rule="evenodd" clip-rule="evenodd" d="m20.92 54.423 9.23 9.231a4.541 4.541 0 0 0 6.423 0l17.984-17.983-1.345-.151h-6.77c-3.418 0-8.31.88-11.729 2.166-3.418 1.286-6.5 2.572-9.584 4.265a95.624 95.624 0 0 0-4.21 2.472ZM62.188 38.04l3.206-3.207a4.541 4.541 0 0 0 0-6.422L41.266 4.283l1.356 2.652c1.296 3.272 4.544 11.237 7.172 16.923a473.028 473.028 0 0 0 6.434 13.336c.916.045 3.31.243 5.563.677.166.032.298.09.397.169ZM29.74 0 1.331 28.41a4.541 4.541 0 0 0 0 6.423l11.963 11.965a172.333 172.333 0 0 0 8.149-14.546c4.109-8.3 5.5-11.519 6.805-14.539l.002-.005.297-.687c1.408-3.25 3.754-9.545 3.82-10.086C32.408 6.614 31 3.07 29.742 0Zm1.22 31.643c-1.288 2.762-4.424 8.19-5.832 10.56 2.971-1.15 9.598-3.615 12.332-4.265 2.735-.65 7.797-.902 9.987-.947-1.385-2.573-4.437-8.259-5.563-10.425-1.126-2.166-3.642-7.446-4.759-9.816l-.804 2.234c-.536 1.49-3.753 9.206-5.362 12.659Z" fill="url(#a)"/><path d="m10.612 77.918.744-1.812h4.212l.744 1.812h1.44l-3.54-8.4h-1.5l-3.552 8.4h1.452Zm2.688-6.6c.048-.132.096-.264.156-.468.06.204.108.336.156.468l1.476 3.588h-3.264l1.476-3.588Zm8.706 6.6c1.332 0 1.896-.696 1.896-1.584 0-.708-.444-1.164-.984-1.332.492-.216.816-.672.816-1.308 0-.9-.66-1.536-1.824-1.536h-3.288v5.76h3.384Zm-2.1-2.448h1.812c.444 0 .888.156.888.744 0 .552-.384.732-.912.732h-1.788V75.47Zm0-2.34h1.716c.396 0 .816.168.816.732 0 .516-.36.696-.816.696h-1.716V73.13Zm6.395 4.788 3.084-3.768v3.768h1.284v-5.76h-1.104l-3.084 3.768v-3.768h-1.284v5.76H26.3Zm8.65 0v-4.632h1.98v-1.128h-5.256v1.128h1.992v4.632h1.284Zm2.471-2.88c0 2.028 1.5 3.036 3.265 3.036.803 0 1.535-.144 2.064-.396v-1.104a4.216 4.216 0 0 1-1.825.408c-1.056 0-2.064-.432-2.208-1.464h4.332c.373-1.668-.42-3.516-2.711-3.516-1.332 0-2.916.948-2.916 3.036Zm4.477-.48h-3.193c.048-.972.828-1.488 1.692-1.488 1.26 0 1.572.984 1.5 1.488Zm4.726-1.308h1.944v4.668h1.284v-5.76h-4.44c-.108 2.856-.372 4.776-1.344 4.776-.12 0-.24-.024-.372-.072v1.008c.288.108.552.156.792.156 1.536 0 1.968-1.992 2.136-4.776Zm7.69 4.668c1.451 0 2.28-.84 2.28-1.92 0-1.092-.829-1.92-2.28-1.92h-1.573v-1.92h-1.284v5.76h2.856Zm-1.573-2.832h1.32c.756 0 1.224.312 1.224.912 0 .588-.468.9-1.224.9h-1.32v-1.812Z" fill="#473B35"/><defs><linearGradient id="a" x1="33.373" y1="65.218" x2="33.373" y2="-2.433" gradientUnits="userSpaceOnUse"><stop stop-color="#E3672E"/><stop offset="1" stop-color="#FCDC0D"/></linearGradient></defs></svg>