<svg width="84" height="83" fill="none" xmlns="http://www.w3.org/2000/svg"><path fill-rule="evenodd" clip-rule="evenodd" d="m26.199 69.488 11.056 11.056a6.709 6.709 0 0 0 9.488 0L68.816 58.47l-1.598-.177h-8.6c-4.343 0-10.56 1.107-14.902 2.725-4.343 1.617-8.26 3.235-12.178 5.364a121.69 121.69 0 0 0-5.34 3.105Zm52.29-20.691 3.544-3.543a6.71 6.71 0 0 0 0-9.488l-30.68-30.68 2.41 4.67c1.647 4.115 5.774 14.135 9.113 21.288a592.839 592.839 0 0 0 8.174 16.775c1.164.057 4.207.307 7.068.852a1.3 1.3 0 0 1 .372.126ZM37.194.537 1.965 35.767a6.71 6.71 0 0 0 0 9.488l14.58 14.58c2.358-3.708 6.509-10.628 10.31-18.23 5.22-10.442 6.988-14.491 8.646-18.29l.38-.87c1.789-4.088 4.769-12.007 4.854-12.689.053-.421-1.895-5.251-3.542-9.217Zm1.754 40.3c-1.635 3.474-5.62 10.303-7.409 13.284 3.775-1.448 12.195-4.547 15.669-5.365 3.474-.817 9.906-1.135 12.688-1.192-1.76-3.236-5.637-10.389-7.068-13.114-1.43-2.725-4.627-9.367-6.046-12.347l-1.022 2.81c-.681 1.873-4.769 11.58-6.812 15.924Z" fill="url(#a)"/><defs><linearGradient id="a" x1="42.013" y1="82.803" x2="42.013" y2="-2.531" gradientUnits="userSpaceOnUse"><stop stop-color="#E3672E"/><stop offset="1" stop-color="#FCDC0D"/></linearGradient></defs></svg>