<svg width="34" height="43" fill="none" xmlns="http://www.w3.org/2000/svg"><path d="M33.32 0H.68A.68.68 0 0 0 0 .68v40.8a.68.68 0 0 0 .68.68h4.08a.68.68 0 0 0 .68-.68v-1.36h23.12v1.36a.68.68 0 0 0 .68.68h4.08a.68.68 0 0 0 .68-.68V.68a.68.68 0 0 0-.68-.68ZM1.36 1.36h24.48V6.8H1.36V1.36ZM4.08 40.8H1.36v-.68h2.72v.68Zm28.56 0h-2.72v-.68h2.72v.68Zm0-2.04H1.36V8.16h31.28v30.6Zm0-31.96H27.2V1.36h5.44V6.8Z" fill="#fff"/><path d="M29.92 23.8c0-7.124-5.796-12.92-12.92-12.92S4.08 16.676 4.08 23.8 9.876 36.72 17 36.72s12.92-5.796 12.92-12.92ZM17 35.36c-6.374 0-11.56-5.186-11.56-11.56 0-6.374 5.186-11.56 11.56-11.56 6.374 0 11.56 5.186 11.56 11.56 0 6.374-5.186 11.56-11.56 11.56Z" fill="#fff"/><path d="M17 13.6a10.2 10.2 0 1 0 10.2 10.2A10.212 10.212 0 0 0 17 13.6Zm0 19.04a8.84 8.84 0 1 1 8.84-8.84A8.85 8.85 0 0 1 17 32.64Z" fill="#fff"/><path d="M17 16.32a7.49 7.49 0 0 0-7.48 7.48.68.68 0 0 0 1.36 0A6.127 6.127 0 0 1 17 17.68a.68.68 0 1 0 0-1.36ZM2.72 5.44h2.72a.68.68 0 0 0 .68-.68V2.72a.68.68 0 0 0-.68-.68H2.72a.68.68 0 0 0-.68.68v2.04a.68.68 0 0 0 .68.68ZM3.4 3.4h1.36v.68H3.4V3.4Zm4.08 0h6.8a.68.68 0 1 0 0-1.36h-6.8a.68.68 0 1 0 0 1.36Zm0 2.04h2.04a.68.68 0 0 0 0-1.36H7.48a.68.68 0 1 0 0 1.36Zm4.76-1.36h-.68a.68.68 0 0 0 0 1.36h.68a.68.68 0 0 0 0-1.36Zm17.68 2.04a2.04 2.04 0 1 0 0-4.079 2.04 2.04 0 0 0 0 4.079Zm0-2.72a.68.68 0 1 1 0 1.36.68.68 0 0 1 0-1.36Zm1.36 33.32h-4.76a.68.68 0 1 0 0 1.36h4.76a.68.68 0 0 0 0-1.36Zm0-2.04h-2.04a.68.68 0 1 0 0 1.36h2.04a.68.68 0 0 0 0-1.36ZM5.44 34H2.72a.68.68 0 0 0-.68.68v2.72a.68.68 0 0 0 .68.68h2.72a.68.68 0 0 0 .68-.68v-2.72a.68.68 0 0 0-.68-.68Zm-.68 2.72H3.4v-1.36h1.36v1.36Z" fill="#fff"/></svg>