<svg width="41" height="37" fill="none" xmlns="http://www.w3.org/2000/svg"><path d="M4.6 7.887h1.315a2.629 2.629 0 1 0 0-5.258H3.943a.657.657 0 0 0-.657.657v5.916a.657.657 0 0 0 1.315 0V7.887Zm2.63-2.629a1.316 1.316 0 0 1-1.315 1.315H4.601v-2.63h1.314A1.316 1.316 0 0 1 7.23 5.259Zm22.313 19.51a.657.657 0 0 0-.623-.45h-7.888a.658.658 0 0 0-.623.45l-1.315 3.944a.656.656 0 0 0 .624.865h10.516a.658.658 0 0 0 .624-.865l-1.315-3.944Zm-8.913 3.494.876-2.629h6.94l.876 2.63H20.63Zm-4.856-3.943a2.63 2.63 0 1 0 0 5.258 2.63 2.63 0 0 0 0-5.258Zm0 3.943a1.314 1.314 0 1 1 0-2.629 1.314 1.314 0 0 1 0 2.63Zm18.403-3.943a2.629 2.629 0 1 0 0 5.257 2.629 2.629 0 0 0 0-5.257Zm0 3.943a1.314 1.314 0 1 1 0-2.628 1.314 1.314 0 0 1 0 2.628Z" fill="#fff"/><path d="M40.093 35.492h-2.085a1.96 1.96 0 0 0 .113-.657V33.52h.657a.658.658 0 0 0 .657-.657V30.89a.657.657 0 0 0-.657-.657v-5.258a2.632 2.632 0 0 0-2.629-2.63h-1.423l-.858-4.718-.064-.352a2.626 2.626 0 0 0-2.587-2.16H18.734a2.626 2.626 0 0 0-2.586 2.16l-.064.352-.859 4.719h-1.423a2.632 2.632 0 0 0-2.629 2.629v5.258a.657.657 0 0 0-.657.657v1.972a.658.658 0 0 0 .657.657h.658v1.315c0 .224.038.446.113.657h-1.428v-1.315a.657.657 0 0 0-.657-.657H6.573V14.46h.657a.658.658 0 0 0 .657-.658v-1.314h2.63a.657.657 0 0 0 .656-.657V.657A.658.658 0 0 0 10.516 0H1.315a.657.657 0 0 0-.658.657v11.174a.657.657 0 0 0 .658.657h2.629v1.314a.658.658 0 0 0 .657.658h.657v19.06H1.972a.657.657 0 0 0-.657.657v1.315H.657a.658.658 0 0 0 0 1.314h39.436a.657.657 0 1 0 0-1.314ZM6.573 13.145H5.258v-.657h1.315v.657Zm-4.601-1.972V1.315h7.887v9.858H1.972Zm7.23 24.319H2.629v-.657h6.573v.657Zm9.532-19.06h12.483a1.314 1.314 0 0 1 1.139.657h-14.76a1.312 1.312 0 0 1 1.138-.658Zm-1.455 1.971h15.393l.718 3.944H16.561l.717-3.944Zm-4.791 6.573a1.316 1.316 0 0 1 1.314-1.315H36.15a1.316 1.316 0 0 1 1.315 1.315v5.258H12.488v-5.258Zm3.286 9.859a.658.658 0 0 1-.657.657h-1.315a.658.658 0 0 1-.657-.657V33.52h2.63v1.315Zm1.201.657c.075-.211.114-.433.114-.657V33.52h15.774v1.315c0 .224.038.446.113.657h-16Zm19.831-.657a.659.659 0 0 1-.657.657h-1.314a.658.658 0 0 1-.658-.657V33.52h2.63v1.315Zm-24.975-2.63v-.657h26.29v.658h-26.29Z" fill="#fff"/></svg>