<svg width="21" height="21" fill="none" xmlns="http://www.w3.org/2000/svg"><path d="m15.787 5.796 1.001-.842a6.597 6.597 0 0 0-1.046-1l-.794 1.04c.308.236.59.505.839.802Z" fill="#E6762A"/><path d="M20.937 9.814V8.506h-2.656a6.56 6.56 0 0 0-.687-2.345l-1.163.6c.282.545.464 1.136.539 1.745H6.588a5.234 5.234 0 0 1 7.364-4.109l.544-1.191a6.486 6.486 0 0 0-2.064-.554V1.309h1.308V0H9.814v1.309h1.309V2.65a6.553 6.553 0 0 0-5.855 5.855H4.253L2.29 5.889H0v1.308h1.636L3.27 9.378v6.418a2.617 2.617 0 1 0 1.309 0v-1.402h7.197v-1.308H4.58V9.814h13.74v3.272h-2.617v1.308h2.617v1.309a2.649 2.649 0 1 0 1.309.364V9.814h1.308ZM5.234 18.32a1.309 1.309 0 1 1-2.617 0 1.309 1.309 0 0 1 2.617 0Zm13.086 1.31a1.309 1.309 0 1 1 0-2.617 1.309 1.309 0 0 1 0 2.617Z" fill="#E6762A"/><path d="M14.394 13.086h-1.308v1.308h1.308v-1.308Z" fill="#E6762A"/></svg>