<svg width="37" height="42" fill="none" xmlns="http://www.w3.org/2000/svg"><path d="M8.729 0A8.738 8.738 0 0 0 0 8.729v16.786a.671.671 0 0 0 .671.671h.672v8.058a7.386 7.386 0 0 0 14.772 0v-8.058h.671a.672.672 0 0 0 .672-.671V8.729A8.738 8.738 0 0 0 8.728 0Zm6.043 34.244a6.043 6.043 0 0 1-12.086 0v-8.058h12.086v8.058Zm1.343-9.4H1.343V23.5h14.772v1.342Zm0-2.686H1.343V8.728a7.386 7.386 0 0 1 14.772 0v13.43Z" fill="#fff"/><path d="M8.729 38.944a4.706 4.706 0 0 0 4.7-4.7.671.671 0 1 0-1.343 0A3.36 3.36 0 0 1 8.729 37.6a.672.672 0 0 0 0 1.343Zm18.801 0a4.705 4.705 0 0 0 4.7-4.7.672.672 0 0 0-1.343 0 3.36 3.36 0 0 1-3.358 3.357.672.672 0 0 0 0 1.343Z" fill="#fff"/><path d="M27.53 0a8.738 8.738 0 0 0-8.73 8.729v16.786a.672.672 0 0 0 .672.671h.671v8.058a7.386 7.386 0 0 0 14.772 0v-8.058h.672a.672.672 0 0 0 .671-.671V8.729A8.738 8.738 0 0 0 27.53 0Zm6.042 34.244a6.043 6.043 0 1 1-12.086 0v-8.058h12.086v8.058Zm1.343-9.4H20.143V23.5h14.772v1.342Zm0-2.686H20.143V8.728a7.386 7.386 0 0 1 14.772 0v13.43Z" fill="#fff"/></svg>