<svg width="21" height="21" fill="none" xmlns="http://www.w3.org/2000/svg"><path d="M20.428 10.301a1.892 1.892 0 0 0-1.05-3.228l-4.66-.676a.583.583 0 0 1-.436-.317l-2.084-4.225a1.892 1.892 0 0 0-3.394 0L6.72 6.08a.584.584 0 0 1-.436.317l-4.661.676a1.892 1.892 0 0 0-1.05 3.228l3.372 3.288a.58.58 0 0 1 .167.513l-.795 4.642a1.889 1.889 0 0 0 2.746 1.995l4.168-2.191a.578.578 0 0 1 .54 0l4.17 2.191a1.892 1.892 0 0 0 2.745-1.994l-.796-4.643a.58.58 0 0 1 .167-.513l3.372-3.288Zm-4.833 4.023.797 4.642a.58.58 0 0 1-.842.612l-4.17-2.193a1.898 1.898 0 0 0-1.76 0l-4.169 2.192a.58.58 0 0 1-.841-.612l.797-4.642a1.9 1.9 0 0 0-.545-1.675L1.489 9.363a.58.58 0 0 1 .321-.99l4.66-.677A1.892 1.892 0 0 0 7.894 6.66l2.084-4.224a.58.58 0 0 1 1.04 0l2.088 4.224a1.89 1.89 0 0 0 1.424 1.035l4.66.677a.58.58 0 0 1 .322.99l-3.372 3.29a1.896 1.896 0 0 0-.545 1.672Z" fill="#E6762A"/><path d="m6.219 16.29 1.101.713.714-1.101-1.102-.714-.713 1.101Zm1.427-2.204 1.101.712.713-1.102-1.102-.712-.712 1.102Zm3.512-7.144H9.845v1.313h1.313V6.942Zm0-2.625H9.845V5.63h1.313V4.317ZM8.281 9.726l-1.283-.28-.279 1.284 1.283.278.279-1.282Zm-4.131.445 1.283.279.28-1.283-1.284-.278-.278 1.282Zm8.805 5.729.712 1.1 1.101-.712-.712-1.101-1.101.712Zm-.314-2.918-1.101.713.712 1.101 1.102-.712-.713-1.102Zm1.645-2.25-.28-1.283-1.282.279.279 1.282 1.283-.278Zm2.286-1.843-1.282.279.278 1.283 1.283-.28-.279-1.282Z" fill="#E6762A"/></svg>