<svg width="29" height="28" fill="none" xmlns="http://www.w3.org/2000/svg"><path d="M24.51 27.924h-2.06a.792.792 0 0 1 0-1.584h2.06a2.757 2.757 0 0 0 2.754-2.754V4.338a2.757 2.757 0 0 0-2.753-2.754H12.616a.792.792 0 1 1 0-1.584H24.51a4.343 4.343 0 0 1 4.338 4.338v19.248a4.343 4.343 0 0 1-4.338 4.338Zm-7.786 0H5.262a4.343 4.343 0 0 1-4.338-4.338V4.338A4.343 4.343 0 0 1 5.262 0h1.783a.792.792 0 0 1 0 1.584H5.262a2.757 2.757 0 0 0-2.754 2.754v19.248a2.757 2.757 0 0 0 2.754 2.754h11.462a.792.792 0 0 1 0 1.584Z" fill="#FCFCFC"/><path d="M23.263 20.239c-.649 0-1.44-.018-1.778-.026l-.177-.004a2.737 2.737 0 0 1-1.922-.77c-.324-.311-.627-.64-.92-.959l-.01-.01c-.155-.17-.316-.345-.476-.512a3.393 3.393 0 0 0-.396-.36.395.395 0 0 0-.149-.08.315.315 0 0 0-.055.098c-.107.271-.233 1.1-.258 1.347-.053.698-.54 1.158-1.271 1.198-.233.012-.46.019-.679.019-1.445 0-2.675-.282-3.758-.863-1.076-.576-2.034-1.411-2.928-2.553-1.076-1.374-2.041-2.957-3.129-5.135-.046-.092-.879-1.865-.971-2.097a.792.792 0 0 1-.034-.106c-.116-.477.03-.915.381-1.143a.792.792 0 0 1 .357-.124c.048-.004.196-.018.847-.018.913 0 2.227.027 2.304.03h.015c.673.037 1.145.376 1.401 1.01.594 1.465 1.297 2.696 2.15 3.765.066.081.149.163.241.237.072-.274.132-.684.136-.893a25.12 25.12 0 0 0-.045-2.083c-.024-.444-.174-.558-.48-.632a.792.792 0 0 1-.394-1.307c.412-.446.95-.533 1.47-.561.258-.014.538-.021.857-.021.293 0 .586.005.87.01.194.005.389.008.583.01a4.97 4.97 0 0 1 1.022.105c.562.123.942.538 1.043 1.14.04.238.059.474.053.698-.008.354-.02.714-.03 1.061l-.002.018c-.016.505-.033 1.021-.04 1.526-.003.322.022.616.075.874.314-.334.628-.73 1.005-1.273.519-.743.97-1.62 1.42-2.758.28-.702.61-.928 1.359-.93a550.25 550.25 0 0 1 3.134 0c.268.002.496.033.696.097.51.162.771.634.649 1.173-.18.8-.61 1.454-1 2.004-.423.597-.866 1.193-1.294 1.77-.227.305-.451.607-.673.909a2.91 2.91 0 0 0-.193.308c-.154.279-.135.3.055.495.23.236.47.472.704.7.345.336.699.682 1.03 1.045a10.5 10.5 0 0 1 1.137 1.479c.284.447.341.932.157 1.33-.105.229-.387.629-1.086.728-.105.014-.322.034-1.003.034Zm-5.836-4.305c.384 0 .77.14 1.117.403.192.146.382.319.581.526.17.178.336.359.497.533l.01.012c.277.301.563.612.852.89.227.219.5.326.832.327l.2.004c.337.008 1.116.026 1.747.026.146 0 .267-.001.365-.003a9.392 9.392 0 0 0-.739-.916c-.301-.33-.639-.659-.965-.977a37.36 37.36 0 0 1-.737-.733c-.69-.713-.79-1.487-.303-2.367.104-.187.2-.338.3-.476.225-.306.45-.61.676-.913.426-.574.863-1.162 1.276-1.745.17-.239.348-.5.492-.775-.863-.002-1.727 0-2.591.001-.488 1.221-.987 2.18-1.566 3.01-.45.646-.827 1.116-1.221 1.526-.424.439-.864.531-1.16.531-.713 0-1.287-.513-1.463-1.307a5.67 5.67 0 0 1-.12-1.276c.007-.521.024-1.046.04-1.553l.002-.024c.011-.344.023-.699.03-1.046a1.974 1.974 0 0 0-.014-.283 3.807 3.807 0 0 0-.535-.039c-.2-.002-.4-.006-.599-.01-.293-.005-.6-.01-.892-.01.103.253.165.538.182.852.044.826.063 1.366.046 2.197-.007.398-.117 1.112-.27 1.537-.217.615-.737.998-1.354.998-.306 0-.612-.1-.886-.287a3.193 3.193 0 0 1-.688-.634c-.95-1.188-1.728-2.549-2.38-4.158a.914.914 0 0 0-.009-.021h-.002a131.06 131.06 0 0 0-1.964-.028c.241.52.521 1.116.561 1.196 1.037 2.078 1.95 3.579 2.958 4.865.756.965 1.55 1.663 2.428 2.134.849.454 1.833.675 3.011.675.13 0 .264-.003.401-.008.052-.39.167-1.135.334-1.556.274-.688.842-1.098 1.52-1.098Z" fill="#FCFCFC"/></svg>